<svg width="80" height="80" viewBox="0 0 80 80" fill="none" xmlns="http://www.w3.org/2000/svg">
<g id="Frame" clip-path="url(#clip0_8562_17859)">
<path id="Vector" d="M67.0222 21.1867C68.5052 26.7214 65.221 32.4099 59.6863 33.8929C54.1516 35.3759 48.4631 32.0917 46.9801 26.557C45.497 21.0223 48.7813 15.3338 54.316 13.8508C59.8507 12.3677 65.5392 15.652 67.0222 21.1867Z" fill="url(#paint0_linear_8562_17859)"/>
<path id="Vector_2" d="M70.1409 39.0714L31.2786 55.699L17.9708 36.1696L47.6613 6.08293L70.1409 39.0714Z" fill="url(#paint1_linear_8562_17859)"/>
<path id="Vector_3" d="M70.7923 40.6972C68.8406 42.0272 66.1802 41.5234 64.8502 39.5716L45.2606 10.8238C43.9306 8.87213 44.4349 6.21156 46.3866 4.88156C48.3383 3.55156 50.9984 4.056 52.3284 6.00771L71.918 34.7555C73.248 36.7072 72.7441 39.3672 70.7923 40.6972Z" fill="url(#paint2_linear_8562_17859)"/>
<path id="Vector_4" d="M28.7249 25.2719L17.9708 36.1696L31.2787 55.699L45.3546 49.6765L28.7249 25.2719Z" fill="url(#paint3_linear_8562_17859)"/>
<path id="Vector_5" d="M22.3101 53.5493L17.0409 57.1399C15.3966 58.2602 13.1554 57.8358 12.0351 56.1915L10.4732 53.8994C9.35248 52.2553 9.77732 50.0139 11.4216 48.8936L16.6908 45.3031L22.3101 53.5493Z" fill="url(#paint4_linear_8562_17859)"/>
<path id="Vector_6" d="M26.7989 57.0727C25.9538 57.6485 25.0417 58.0504 24.1049 58.2876L27.6791 63.532C28.2354 64.3485 28.5803 65.2902 28.6836 66.2731L28.9758 69.066C29.4466 73.5601 34.5446 75.9235 38.2785 73.379C40.0945 72.1416 41.0843 70.0066 40.8552 67.8213L40.7835 67.1357C40.1904 61.4751 38.3932 56.0179 35.5259 51.1252L26.7989 57.0727Z" fill="url(#paint5_linear_8562_17859)"/>
<path id="Vector_7" d="M35.526 51.1257C37.0855 53.7851 38.3246 56.6132 39.2297 59.5502L35.9165 61.8076L25.1088 59.761L24.1048 58.2871C25.0419 58.0514 25.9538 57.6485 26.7979 57.073L35.526 51.1257Z" fill="url(#paint6_linear_8562_17859)"/>
<path id="Vector_8" d="M40.8553 67.8219L40.7836 67.1363C40.5291 64.7072 40.0516 62.3164 39.3641 59.991L36.2811 59.4066C35.6669 59.2576 34.9879 59.3521 34.4085 59.7472L30.9081 62.1325C30.0116 62.7435 29.6644 63.887 30.0427 64.9036C30.1366 65.1567 30.2065 65.3927 30.2253 65.5717L30.4373 67.5959C30.6555 69.6778 32.2435 71.1262 34.0671 71.4216L39.3632 72.4246C40.4728 71.1852 41.0336 69.5196 40.8553 67.8219Z" fill="url(#paint7_linear_8562_17859)"/>
<path id="Vector_9" d="M30.9082 62.1324C30.0117 62.7434 29.6645 63.8869 30.0428 64.9035C30.1367 65.1566 30.207 65.3924 30.2254 65.5716L30.4374 67.5959C30.7788 70.8532 34.4737 72.5666 37.1806 70.7223C38.4964 69.825 39.2137 68.278 39.0481 66.694L38.9957 66.1971C38.8105 64.4292 38.4633 62.6887 37.9617 60.9963C37.5133 59.485 35.7112 58.8596 34.4086 59.7471L30.9082 62.1324Z" fill="url(#paint8_linear_8562_17859)"/>
<path id="Vector_10" d="M37.0409 53.6758L30.139 58.3785C26.3784 60.9414 21.2519 59.9701 18.6888 56.209L12.8904 47.7008C10.3278 43.9395 11.2991 38.813 15.0597 36.2501L21.9615 31.547C22.3045 31.3134 22.7716 31.402 23.005 31.7445L37.2384 52.6323C37.4719 52.9748 37.3833 53.4419 37.0409 53.6758Z" fill="url(#paint9_linear_8562_17859)"/>
<path id="Vector_11" d="M23.2049 42.7492L18.8416 45.7222C17.9499 46.3299 16.7349 46.0995 16.1272 45.2077C15.5197 44.3165 15.7499 43.101 16.6412 42.4934L21.0044 39.5205C21.8961 38.9128 23.1111 39.1432 23.7188 40.0349C24.3264 40.9262 24.0961 42.1417 23.2049 42.7492Z" fill="url(#paint10_linear_8562_17859)"/>
<path id="Vector_12" d="M26.0588 46.9375L21.6957 49.9109C20.8043 50.518 19.589 50.2883 18.9813 49.3965C18.3736 48.5048 18.604 47.2898 19.4957 46.6821L23.8588 43.7087C24.7507 43.1015 25.9656 43.3314 26.5732 44.2231C27.1809 45.1148 26.9506 46.3298 26.0588 46.9375Z" fill="url(#paint11_linear_8562_17859)"/>
</g>
<defs>
<linearGradient id="paint0_linear_8562_17859" x1="55.4847" y1="21.6468" x2="62.086" y2="31.3335" gradientUnits="userSpaceOnUse">
<stop stop-color="#FFC738"/>
<stop offset="0.2837" stop-color="#FFC534"/>
<stop offset="0.5391" stop-color="#FFBF29"/>
<stop offset="0.7827" stop-color="#FFB417"/>
<stop offset="1" stop-color="#FFA700"/>
</linearGradient>
<linearGradient id="paint1_linear_8562_17859" x1="39.2822" y1="30.6156" x2="52.6942" y2="50.2961" gradientUnits="userSpaceOnUse">
<stop stop-color="#FFFCF8"/>
<stop offset="0.1875" stop-color="#FAF8F6"/>
<stop offset="0.4041" stop-color="#ECEEF2"/>
<stop offset="0.6353" stop-color="#D5DCEA"/>
<stop offset="0.875" stop-color="#B5C4DF"/>
<stop offset="1" stop-color="#A1B5D8"/>
</linearGradient>
<linearGradient id="paint2_linear_8562_17859" x1="55.0551" y1="25.1982" x2="62.1238" y2="20.381" gradientUnits="userSpaceOnUse">
<stop stop-color="#FF4974"/>
<stop offset="0.3262" stop-color="#FE4672"/>
<stop offset="0.5324" stop-color="#FB3E6C"/>
<stop offset="0.7054" stop-color="#F52F60"/>
<stop offset="0.8591" stop-color="#EE1A51"/>
<stop offset="1" stop-color="#E4003D"/>
</linearGradient>
<linearGradient id="paint3_linear_8562_17859" x1="32.5244" y1="40.5514" x2="25.7174" y2="45.1903" gradientUnits="userSpaceOnUse">
<stop stop-color="#A1B5D8" stop-opacity="0"/>
<stop offset="0.2632" stop-color="#8EA0BA" stop-opacity="0.262745"/>
<stop offset="0.5306" stop-color="#808FA3" stop-opacity="0.529412"/>
<stop offset="0.7822" stop-color="#778595" stop-opacity="0.780392"/>
<stop offset="1" stop-color="#748290"/>
</linearGradient>
<linearGradient id="paint4_linear_8562_17859" x1="13.6378" y1="49.6835" x2="19.0973" y2="57.6947" gradientUnits="userSpaceOnUse">
<stop stop-color="#FFC738"/>
<stop offset="0.2837" stop-color="#FFC534"/>
<stop offset="0.5391" stop-color="#FFBF29"/>
<stop offset="0.7827" stop-color="#FFB417"/>
<stop offset="1" stop-color="#FFA700"/>
</linearGradient>
<linearGradient id="paint5_linear_8562_17859" x1="32.4819" y1="61.0753" x2="43.8748" y2="77.793" gradientUnits="userSpaceOnUse">
<stop stop-color="#FF4974"/>
<stop offset="0.3262" stop-color="#FE4672"/>
<stop offset="0.5324" stop-color="#FB3E6C"/>
<stop offset="0.7054" stop-color="#F52F60"/>
<stop offset="0.8591" stop-color="#EE1A51"/>
<stop offset="1" stop-color="#E4003D"/>
</linearGradient>
<linearGradient id="paint6_linear_8562_17859" x1="33.8545" y1="60.6333" x2="27.8715" y2="51.854" gradientUnits="userSpaceOnUse">
<stop stop-color="#E4003D" stop-opacity="0"/>
<stop offset="0.2234" stop-color="#CD1845" stop-opacity="0.223529"/>
<stop offset="0.5034" stop-color="#B82E4D" stop-opacity="0.501961"/>
<stop offset="0.7682" stop-color="#AB3C51" stop-opacity="0.768627"/>
<stop offset="1" stop-color="#A64153"/>
</linearGradient>
<linearGradient id="paint7_linear_8562_17859" x1="45.7069" y1="67.4083" x2="28.2526" y2="64.102" gradientUnits="userSpaceOnUse">
<stop stop-color="#E4003D" stop-opacity="0"/>
<stop offset="0.1066" stop-color="#D21243" stop-opacity="0.105882"/>
<stop offset="0.2664" stop-color="#BF274A" stop-opacity="0.266667"/>
<stop offset="0.4463" stop-color="#B1364F" stop-opacity="0.447059"/>
<stop offset="0.6608" stop-color="#A83E52" stop-opacity="0.662745"/>
<stop offset="1" stop-color="#A64153"/>
</linearGradient>
<linearGradient id="paint8_linear_8562_17859" x1="35.0845" y1="65.4556" x2="38.2622" y2="64.8539" gradientUnits="userSpaceOnUse">
<stop stop-color="#FFC738"/>
<stop offset="0.2447" stop-color="#FFC331"/>
<stop offset="0.5988" stop-color="#FFB81E"/>
<stop offset="1" stop-color="#FFA700"/>
</linearGradient>
<linearGradient id="paint9_linear_8562_17859" x1="18.8527" y1="41.0507" x2="28.9422" y2="55.8558" gradientUnits="userSpaceOnUse">
<stop stop-color="#FF4974"/>
<stop offset="0.3262" stop-color="#FE4672"/>
<stop offset="0.5324" stop-color="#FB3E6C"/>
<stop offset="0.7054" stop-color="#F52F60"/>
<stop offset="0.8591" stop-color="#EE1A51"/>
<stop offset="1" stop-color="#E4003D"/>
</linearGradient>
<linearGradient id="paint10_linear_8562_17859" x1="22.629" y1="46.5919" x2="18.7631" y2="40.9191" gradientUnits="userSpaceOnUse">
<stop stop-color="#FF4974"/>
<stop offset="0.3262" stop-color="#FE4672"/>
<stop offset="0.5324" stop-color="#FB3E6C"/>
<stop offset="0.7054" stop-color="#F52F60"/>
<stop offset="0.8591" stop-color="#EE1A51"/>
<stop offset="1" stop-color="#E4003D"/>
</linearGradient>
<linearGradient id="paint11_linear_8562_17859" x1="25.4832" y1="50.7803" x2="21.6172" y2="45.1075" gradientUnits="userSpaceOnUse">
<stop stop-color="#FF4974"/>
<stop offset="0.3262" stop-color="#FE4672"/>
<stop offset="0.5324" stop-color="#FB3E6C"/>
<stop offset="0.7054" stop-color="#F52F60"/>
<stop offset="0.8591" stop-color="#EE1A51"/>
<stop offset="1" stop-color="#E4003D"/>
</linearGradient>
<clipPath id="clip0_8562_17859">
<rect width="64.75" height="64.75" fill="white" transform="translate(0.333374 16.8416) rotate(-15)"/>
</clipPath>
</defs>
</svg>
