<svg width="118" height="118" viewBox="0 0 118 118" fill="none" xmlns="http://www.w3.org/2000/svg">
<g id="Capa_1" clip-path="url(#clip0_8562_16204)">
<g id="Group">
<g id="Group_2">
<path id="Vector" d="M10.7672 71.5212L46.4788 107.233L29.5785 107.416C29.5458 107.416 29.513 107.416 29.4804 107.416C25.7208 107.472 22.0936 108.655 19.0195 110.741L12.906 116.098C9.85996 118.767 5.26744 118.609 2.40583 115.743C2.35585 115.693 2.30588 115.643 2.25567 115.593C-0.608493 112.731 -0.765826 108.14 1.90259 105.094L7.25933 98.9808C9.34539 95.9065 10.5282 92.2795 10.5821 88.5183C10.5821 88.4855 10.5837 88.4545 10.5837 88.4219L10.7672 71.5212Z" fill="url(#paint0_linear_8562_16204)"/>
<path id="Vector_2" d="M10.7672 71.5212L46.4788 107.233L29.5785 107.416C29.5458 107.416 29.513 107.416 29.4804 107.416C25.7208 107.472 22.0936 108.655 19.0195 110.741L12.906 116.098C9.85996 118.767 5.26744 118.609 2.40583 115.743C2.35585 115.693 2.30588 115.643 2.25567 115.593C-0.608493 112.731 -0.765826 108.14 1.90259 105.094L7.25933 98.9808C9.34539 95.9065 10.5282 92.2795 10.5821 88.5183C10.5821 88.4855 10.5837 88.4545 10.5837 88.4219L10.7672 71.5212Z" fill="url(#paint1_linear_8562_16204)"/>
<g id="Group_3">
<path id="Vector_3" d="M10.5828 88.4214V88.5186C10.5272 92.2784 9.34492 95.9063 7.26026 98.9813L4.84473 101.737V117.387C6.83453 118.234 9.11355 118.206 11.0918 117.281V71.8459L10.7679 71.522L10.5828 88.4214Z" fill="url(#paint2_linear_8562_16204)"/>
<path id="Vector_4" d="M16.876 112.618L19.0185 110.74C20.3003 109.872 21.6793 109.157 23.123 108.618V83.8772L16.876 77.6301V112.618Z" fill="url(#paint3_linear_8562_16204)"/>
<path id="Vector_5" d="M28.9077 89.6616V107.436C29.0974 107.426 29.2895 107.419 29.4792 107.417H29.5787L35.1548 107.357V95.9087L28.9077 89.6616Z" fill="url(#paint4_linear_8562_16204)"/>
</g>
<path id="Vector_6" d="M10.7313 69.1059C8.93604 70.9011 9.06839 73.849 11.017 75.4762C22.4507 85.0238 32.9759 95.549 42.5235 106.983C44.1507 108.931 47.0986 109.063 48.8939 107.268C50.4795 105.683 50.5833 103.153 49.146 101.431C39.2743 89.6101 28.3896 78.7256 16.5686 68.8539C14.8471 67.4164 12.3169 67.5203 10.7313 69.1059Z" fill="url(#paint5_linear_8562_16204)"/>
</g>
<g id="Group_4">
<path id="Vector_7" d="M107.233 42.1731L71.521 77.8848L88.4214 78.068H88.5195C92.279 78.1235 95.9063 79.3065 98.9803 81.3924L105.094 86.7493C108.14 89.4185 112.732 89.2604 115.594 86.3944C115.644 86.3444 115.694 86.2942 115.744 86.2443C118.609 83.3824 118.766 78.7913 116.097 75.746L110.74 69.6324C108.654 66.5581 107.472 62.9311 107.418 59.17C107.418 59.1371 107.416 59.1061 107.416 59.0735L107.233 42.1731Z" fill="url(#paint6_linear_8562_16204)"/>
<path id="Vector_8" d="M107.233 42.1731L71.521 77.8848L88.4214 78.068H88.5195C92.279 78.1235 95.9063 79.3065 98.9803 81.3924L105.094 86.7493C108.14 89.4185 112.732 89.2604 115.594 86.3944C115.644 86.3444 115.694 86.2942 115.744 86.2443C118.609 83.3824 118.766 78.7913 116.097 75.746L110.74 69.6324C108.654 66.5581 107.472 62.9311 107.418 59.17C107.418 59.1371 107.416 59.1061 107.416 59.0735L107.233 42.1731Z" fill="url(#paint7_linear_8562_16204)"/>
<g id="Group_5">
<path id="Vector_9" d="M107.417 59.0733V59.1705C107.473 62.9303 108.655 66.5582 110.74 69.6331L113.155 72.3888V88.0388C111.165 88.8856 108.886 88.8579 106.908 87.9324V42.4977L107.232 42.1738L107.417 59.0733Z" fill="url(#paint8_linear_8562_16204)"/>
<path id="Vector_10" d="M101.124 83.2701L98.981 81.3914C97.6992 80.5238 96.3202 79.8088 94.8765 79.2697V54.529L101.124 48.282V83.2701Z" fill="url(#paint9_linear_8562_16204)"/>
<path id="Vector_11" d="M89.0923 60.3135V78.0875C88.9025 78.0783 88.7105 78.0713 88.5208 78.069H88.4213L82.8452 78.0089V66.5605L89.0923 60.3135Z" fill="url(#paint10_linear_8562_16204)"/>
</g>
<path id="Vector_12" d="M107.269 39.7577C109.064 41.5529 108.932 44.5009 106.983 46.1281C95.5495 55.6757 85.0244 66.2008 75.4768 77.6346C73.8495 79.5832 70.9016 79.7153 69.1064 77.9203C67.5208 76.3347 67.4169 73.8044 68.8542 72.0832C78.7259 60.2619 89.6106 49.3775 101.432 39.5058C103.153 38.0682 105.683 38.1721 107.269 39.7577Z" fill="url(#paint11_linear_8562_16204)"/>
</g>
<g id="Group_6">
<g id="Group_7">
<g id="Group_8">
<path id="Vector_13" d="M28.1064 17.2374L24.4551 18.7334C23.3251 19.1964 22.103 18.3084 22.1941 17.0907L22.4887 13.1557C22.5208 12.7256 22.3827 12.3001 22.1037 11.9711L19.5523 8.96072C18.7629 8.02922 19.2296 6.59239 20.416 6.30271L24.2494 5.36681C24.6684 5.26455 25.0303 5.00147 25.2573 4.63452L27.332 1.278C27.974 0.239366 29.4847 0.239366 30.1267 1.278L32.2015 4.63452C32.4282 5.00147 32.7903 5.26431 33.2093 5.36681L37.0427 6.30271C38.2289 6.59239 38.6958 8.02899 37.9064 8.96072L35.3553 11.9711C35.0765 12.3001 34.9381 12.7256 34.9703 13.1557L35.2648 17.0907C35.356 18.3084 34.1339 19.1964 33.0039 18.7334L29.3526 17.2374C28.9528 17.074 28.5055 17.074 28.1064 17.2374Z" fill="url(#paint12_linear_8562_16204)"/>
<path id="Vector_14" d="M29.3518 17.2372L33.0031 18.7333C34.1331 19.1962 35.3553 18.3082 35.2641 17.0905L34.9696 13.1556C34.9374 12.7254 35.0755 12.2999 35.3546 11.9709L37.9057 8.96054C38.6951 8.02903 38.2284 6.59221 37.042 6.30253L33.2086 5.36663C32.7896 5.26436 32.4275 5.00129 32.2007 4.63433L30.126 1.27781C29.8051 0.758379 29.2669 0.498779 28.7285 0.498779V17.1143C28.9407 17.1146 29.1524 17.1555 29.3518 17.2372Z" fill="url(#paint13_linear_8562_16204)"/>
</g>
<g id="Group_9">
<path id="Vector_15" d="M24.4547 18.7332L28.106 17.2371C28.5052 17.0735 28.9526 17.0735 29.3517 17.2371L33.003 18.7332C34.1331 19.1962 35.3552 18.3081 35.264 17.0904L34.9695 13.1555C34.9574 12.9958 34.9692 12.8369 35.0028 12.6832L29.7324 8.96393C29.1306 8.53937 28.3268 8.53937 27.725 8.96393L22.455 12.6832C22.4885 12.8369 22.5003 12.9958 22.4883 13.1555L22.1938 17.0904C22.1026 18.3084 23.325 19.1964 24.4547 18.7332Z" fill="url(#paint14_linear_8562_16204)"/>
<path id="Vector_16" d="M35.2642 17.0909L34.9697 13.156C34.9577 12.9963 34.9695 12.8374 35.003 12.6837L29.7326 8.96442C29.1308 8.53985 28.327 8.53985 27.7252 8.96442L22.455 12.6835C22.4885 12.8371 22.5003 12.9961 22.4883 13.1557L22.1938 17.0907C22.1026 18.3084 23.3247 19.1964 24.4547 18.7334L28.106 17.2374C28.5052 17.0738 28.9526 17.0738 29.3517 17.2374L33.003 18.7334C34.1333 19.1966 35.3554 18.3086 35.2642 17.0909Z" fill="url(#paint15_linear_8562_16204)"/>
</g>
<path id="Vector_17" d="M23.7153 5.49709L27.7255 8.32724C28.3273 8.75181 29.1311 8.75181 29.7329 8.32724L33.743 5.49732L33.209 5.36683C32.79 5.26456 32.4281 5.00149 32.2012 4.63476L30.1264 1.27824C29.4844 0.23961 27.9737 0.23961 27.3317 1.27824L25.257 4.63476C25.0302 5.00172 24.6681 5.26456 24.2491 5.36683L23.7153 5.49709Z" fill="url(#paint16_linear_8562_16204)"/>
</g>
<g id="Group_10">
<g id="Group_11">
<path id="Vector_18" d="M80.056 32.9923L76.9163 35.3824C75.9448 36.1221 74.5343 35.5807 74.3071 34.3808L73.5732 30.5037C73.4929 30.0798 73.2493 29.7048 72.8948 29.4591L69.6514 27.2115C68.6478 26.516 68.7269 25.0074 69.7977 24.4207L73.2583 22.5246C73.6366 22.3173 73.9182 21.9695 74.0422 21.5565L75.1773 17.7773C75.5285 16.6077 76.9878 16.2167 77.8767 17.054L80.7495 19.7592C81.0634 20.0549 81.4813 20.2153 81.9123 20.2055L85.8572 20.1174C87.0782 20.0901 87.901 21.3571 87.3794 22.4612L85.6944 26.0292C85.5102 26.4193 85.4868 26.8661 85.6291 27.273L86.932 30.9977C87.3353 32.1504 86.3845 33.3244 85.1731 33.1696L81.2589 32.6696C80.8314 32.6152 80.3992 32.7311 80.056 32.9923Z" fill="url(#paint17_linear_8562_16204)"/>
<path id="Vector_19" d="M81.2592 32.6702L85.1734 33.1701C86.3846 33.3249 87.3353 32.151 86.9323 30.9983L85.6294 27.2736C85.4869 26.8664 85.5105 26.4196 85.6947 26.0298L87.3797 22.4618C87.9013 21.3577 87.0785 20.0907 85.8575 20.118L81.9126 20.2061C81.4814 20.2158 81.0637 20.0555 80.7498 19.7598L77.877 17.0546C77.4326 16.636 76.8456 16.5245 76.3257 16.6638L80.6262 32.7132C80.8305 32.6581 81.0455 32.6428 81.2592 32.6702Z" fill="url(#paint18_linear_8562_16204)"/>
</g>
<g id="Group_12">
<path id="Vector_20" d="M76.9164 35.3825L80.0561 32.9924C80.3992 32.7312 80.8314 32.6153 81.2592 32.6701L85.1734 33.1701C86.3846 33.3249 87.3353 32.1509 86.9323 30.9982L85.6294 27.2736C85.5766 27.1225 85.5468 26.9659 85.5394 26.8088L79.486 24.5802C78.7949 24.3257 78.0184 24.5339 77.5471 25.0996L73.4189 30.0563C73.4911 30.1961 73.5437 30.3467 73.5733 30.5038L74.3072 34.3809C74.5344 35.5808 75.9448 36.1222 76.9164 35.3825Z" fill="url(#paint19_linear_8562_16204)"/>
<path id="Vector_21" d="M86.9323 30.9982L85.6294 27.2736C85.5766 27.1225 85.5468 26.9659 85.5394 26.8088L79.486 24.5802C78.7949 24.3257 78.0184 24.5339 77.5471 25.0996L73.4189 30.0563C73.4911 30.1961 73.5437 30.3467 73.5733 30.5038L74.3072 34.3809C74.5344 35.5808 75.9446 36.1222 76.9164 35.3825L80.0561 32.9924C80.3992 32.7312 80.8314 32.6153 81.2592 32.6701L85.1734 33.1701C86.3848 33.3249 87.3355 32.1509 86.9323 30.9982Z" fill="url(#paint20_linear_8562_16204)"/>
</g>
<path id="Vector_22" d="M72.7764 22.7889L77.3823 24.4847C78.0734 24.7392 78.8499 24.5309 79.3212 23.9652L82.4623 20.1938L81.9128 20.2061C81.4815 20.2158 81.0639 20.0555 80.7499 19.7598L77.8772 17.0546C76.9883 16.2175 75.529 16.6085 75.1778 17.7779L74.0427 21.5571C73.9187 21.9701 73.6371 22.3178 73.2588 22.5252L72.7764 22.7889Z" fill="url(#paint21_linear_8562_16204)"/>
</g>
<path id="Vector_23" d="M84.511 44.9579C84.511 44.0815 84.511 43.643 84.511 42.7666C84.511 41.6833 83.6397 40.6488 82.5594 40.5061C78.3352 40.0716 74.3149 40.0709 70.0854 40.5061C69.0051 40.6488 68.1338 41.6833 68.1338 42.7666V44.9579C68.1338 46.0412 69.0051 47.0757 70.0854 47.2184C74.3149 47.6536 78.3355 47.6529 82.5594 47.2184C83.6397 47.0757 84.511 46.0412 84.511 44.9579Z" fill="url(#paint22_linear_8562_16204)"/>
<path id="Vector_24" d="M68.1606 15.3585C68.5958 11.129 68.5951 7.10843 68.1606 2.88449C68.0178 1.80421 66.9834 0.932861 65.9001 0.932861C65.0236 0.932861 64.5852 0.932861 63.7087 0.932861C62.6254 0.932861 61.591 1.80421 61.4482 2.88449C61.0137 7.10866 61.013 11.129 61.4482 15.3585C61.591 16.4388 62.6254 17.3101 63.7087 17.3101H65.9001C66.9834 17.3101 68.0178 16.4388 68.1606 15.3585Z" fill="url(#paint23_linear_8562_16204)"/>
<g id="Group_13">
<path id="Vector_25" d="M21.5206 60.8475H21.0578C14.5512 60.8475 9.25781 55.5539 9.25781 49.0475C9.25781 42.541 14.5512 37.2475 21.0578 37.2475H25.2225V33.1984C25.2225 30.9622 27.0353 29.1494 29.2715 29.1494C31.5078 29.1494 33.3206 30.9622 33.3206 33.1984V37.2475H38.7578C40.994 37.2475 42.8068 39.0603 42.8068 41.2965C42.8068 43.5327 40.994 45.3455 38.7578 45.3455H33.3206V49.0475C33.3206 55.5539 28.0272 60.8475 21.5206 60.8475ZM21.0578 45.3455C19.0166 45.3455 17.3559 47.0063 17.3559 49.0475C17.3559 51.0886 19.0166 52.7494 21.0578 52.7494H21.5206C23.5617 52.7494 25.2225 51.0886 25.2225 49.0475V45.3455H21.0578Z" fill="url(#paint24_linear_8562_16204)"/>
<path id="Vector_26" d="M33.3207 33.1984C33.3207 30.9622 31.5079 29.1494 29.2717 29.1494C27.0355 29.1494 25.2227 30.9622 25.2227 33.1984V37.2475H33.3207V33.1984Z" fill="url(#paint25_linear_8562_16204)"/>
<path id="Vector_27" d="M25.2227 49.0474C25.2227 51.0886 23.5619 52.7494 21.5208 52.7494H21.058C20.9801 52.7494 20.9037 52.7424 20.8267 52.7376V60.8414C20.9039 60.8428 20.9803 60.8472 21.058 60.8472H21.5208C28.0274 60.8472 33.3208 55.5536 33.3208 49.0472V45.3452H25.2227V49.0474Z" fill="url(#paint26_linear_8562_16204)"/>
</g>
<path id="Vector_28" d="M57.863 44.6116C55.7616 44.6116 53.9856 42.9885 53.8292 40.8592C53.7182 39.3509 52.7096 38.0619 51.2756 37.5813C48.4891 36.648 46.3887 34.1149 46.1601 31.006L45.8621 26.9539C45.6983 24.7237 47.3732 22.783 49.6034 22.6189C51.8313 22.4574 53.7746 24.13 53.9384 26.3602L53.9759 26.8704C54.0881 28.3972 55.0784 29.7473 56.5312 30.2304C57.4965 30.5513 58.3958 31.0712 59.1786 31.7732C60.6577 33.0999 61.517 34.9839 61.6628 36.9657L61.8972 40.1519C62.0383 42.0709 60.8708 43.8909 59.0272 44.4415C58.6334 44.5591 58.2433 44.6116 57.863 44.6116Z" fill="url(#paint27_linear_8562_16204)"/>
<path id="Vector_29" d="M38.0975 81.398C40.1988 81.398 41.9748 79.7749 42.1312 77.6456C42.2423 76.1372 43.2508 74.8483 44.6849 74.3677C47.4713 73.4344 49.5717 70.9013 49.8003 67.7923L50.0983 63.7403C50.2621 61.5101 48.5872 59.5694 46.357 59.4053C44.1291 59.2438 42.1858 60.9164 42.022 63.1466L41.9845 63.6568C41.8723 65.1836 40.8821 66.5337 39.4293 67.0168C38.464 67.3377 37.5646 67.8576 36.7819 68.5596C35.3027 69.8863 34.4434 71.7703 34.2977 73.752L34.0633 76.9383C33.9221 78.8573 35.0896 80.6772 36.9332 81.2279C37.327 81.3454 37.7171 81.398 38.0975 81.398Z" fill="url(#paint28_linear_8562_16204)"/>
<path id="Vector_30" d="M60.6364 98.611C62.1223 100.097 64.5258 100.205 66.1419 98.8099C67.287 97.822 68.9117 97.6237 70.2654 98.2979C72.8959 99.6082 76.1721 99.3023 78.5321 97.2655L81.608 94.611C83.301 93.1499 83.4888 90.5932 82.0279 88.9003C80.5668 87.2108 78.0099 87.0194 76.3172 88.4803L75.9299 88.8147C74.771 89.8149 73.1159 90.0694 71.7471 89.3836C70.8376 88.928 69.8342 88.6596 68.7842 88.6027C66.8002 88.4949 64.8603 89.2196 63.356 90.5178L60.9374 92.605C59.4807 93.862 59.0193 95.9745 59.9337 97.6677C60.1288 98.0291 60.3675 98.3421 60.6364 98.611Z" fill="url(#paint29_linear_8562_16204)"/>
<path id="Vector_31" d="M97.4417 22.0034C99.543 22.0034 101.319 20.3804 101.475 18.251C101.587 16.7427 102.595 15.4537 104.029 14.9732C106.816 14.0398 108.916 11.5068 109.145 8.3978L109.443 4.34577C109.606 2.11557 107.931 0.17482 105.701 0.0107769C103.473 -0.150721 101.53 1.52187 101.366 3.75207L101.329 4.26225C101.217 5.78908 100.226 7.13913 98.7735 7.62224C97.8082 7.94315 96.9089 8.46305 96.1261 9.16503C94.647 10.4917 93.7877 12.3758 93.6419 14.3575L93.4075 17.5437C93.2664 19.4627 94.4339 21.2827 96.2775 21.8334C96.6713 21.9509 97.0613 22.0034 97.4417 22.0034Z" fill="url(#paint30_linear_8562_16204)"/>
<g id="Group_14">
<path id="Vector_32" d="M53.4925 87.4175L51.5291 85.4541C50.463 84.3879 50.463 82.6595 51.5291 81.5936L53.4925 79.6302C54.5587 78.564 56.2871 78.564 57.353 79.6302L59.3164 81.5936C60.3826 82.6598 60.3826 84.3881 59.3164 85.4541L57.353 87.4175C56.2871 88.4837 54.5587 88.4837 53.4925 87.4175Z" fill="url(#paint31_linear_8562_16204)"/>
<path id="Vector_33" d="M94.7621 34.5515L92.7986 32.5881C91.7325 31.5219 91.7325 29.7936 92.7986 28.7277L94.7621 26.7642C95.8282 25.6981 97.5566 25.6981 98.6225 26.7642L100.586 28.7277C101.652 29.7938 101.652 31.5222 100.586 32.5881L98.6225 34.5515C97.5566 35.6177 95.828 35.6177 94.7621 34.5515Z" fill="url(#paint32_linear_8562_16204)"/>
<path id="Vector_34" d="M15.6649 27.7263L13.7015 25.7629C12.6353 24.6967 12.6353 22.9684 13.7015 21.9025L15.6649 19.939C16.7311 18.8729 18.4594 18.8729 19.5254 19.939L21.4888 21.9025C22.555 22.9686 22.555 24.697 21.4888 25.7629L19.5254 27.7263C18.4594 28.7925 16.7311 28.7925 15.6649 27.7263Z" fill="url(#paint33_linear_8562_16204)"/>
</g>
</g>
</g>
</g>
<defs>
<linearGradient id="paint0_linear_8562_16204" x1="9.08463" y1="96.13" x2="26.4683" y2="113.514" gradientUnits="userSpaceOnUse">
<stop stop-color="#FEAEE1"/>
<stop offset="0.1963" stop-color="#FEA3D7"/>
<stop offset="0.5371" stop-color="#FE87BF"/>
<stop offset="0.9794" stop-color="#FE5996"/>
<stop offset="1" stop-color="#FE5694"/>
</linearGradient>
<linearGradient id="paint1_linear_8562_16204" x1="17.8601" y1="100.14" x2="29.6726" y2="88.3277" gradientUnits="userSpaceOnUse">
<stop stop-color="#FE2AA8" stop-opacity="0"/>
<stop offset="0.1497" stop-color="#FC299E" stop-opacity="0.15"/>
<stop offset="0.4099" stop-color="#F62681" stop-opacity="0.41"/>
<stop offset="0.7468" stop-color="#EC2254" stop-opacity="0.747"/>
<stop offset="1" stop-color="#E41F2D"/>
</linearGradient>
<linearGradient id="paint2_linear_8562_16204" x1="5.34773" y1="85.716" x2="14.2942" y2="116.103" gradientUnits="userSpaceOnUse">
<stop stop-color="#FE2AA8" stop-opacity="0"/>
<stop offset="0.1497" stop-color="#FC299E" stop-opacity="0.15"/>
<stop offset="0.4099" stop-color="#F62681" stop-opacity="0.41"/>
<stop offset="0.7468" stop-color="#EC2254" stop-opacity="0.747"/>
<stop offset="1" stop-color="#E41F2D"/>
</linearGradient>
<linearGradient id="paint3_linear_8562_16204" x1="15.4355" y1="82.746" x2="24.3819" y2="113.133" gradientUnits="userSpaceOnUse">
<stop stop-color="#FE2AA8" stop-opacity="0"/>
<stop offset="0.1497" stop-color="#FC299E" stop-opacity="0.15"/>
<stop offset="0.4099" stop-color="#F62681" stop-opacity="0.41"/>
<stop offset="0.7468" stop-color="#EC2254" stop-opacity="0.747"/>
<stop offset="1" stop-color="#E41F2D"/>
</linearGradient>
<linearGradient id="paint4_linear_8562_16204" x1="25.5799" y1="79.7596" x2="34.5261" y2="110.146" gradientUnits="userSpaceOnUse">
<stop stop-color="#FE2AA8" stop-opacity="0"/>
<stop offset="0.1497" stop-color="#FC299E" stop-opacity="0.15"/>
<stop offset="0.4099" stop-color="#F62681" stop-opacity="0.41"/>
<stop offset="0.7468" stop-color="#EC2254" stop-opacity="0.747"/>
<stop offset="1" stop-color="#E41F2D"/>
</linearGradient>
<linearGradient id="paint5_linear_8562_16204" x1="32.8072" y1="85.1925" x2="27.6402" y2="90.3595" gradientUnits="userSpaceOnUse">
<stop stop-color="#FEAEE1"/>
<stop offset="0.1963" stop-color="#FEA3D7"/>
<stop offset="0.5371" stop-color="#FE87BF"/>
<stop offset="0.9794" stop-color="#FE5996"/>
<stop offset="1" stop-color="#FE5694"/>
</linearGradient>
<linearGradient id="paint6_linear_8562_16204" x1="108.915" y1="66.7817" x2="91.5315" y2="84.1656" gradientUnits="userSpaceOnUse">
<stop stop-color="#FEAEE1"/>
<stop offset="0.1963" stop-color="#FEA3D7"/>
<stop offset="0.5371" stop-color="#FE87BF"/>
<stop offset="0.9794" stop-color="#FE5996"/>
<stop offset="1" stop-color="#FE5694"/>
</linearGradient>
<linearGradient id="paint7_linear_8562_16204" x1="100.139" y1="70.7916" x2="88.3272" y2="58.9793" gradientUnits="userSpaceOnUse">
<stop stop-color="#FE2AA8" stop-opacity="0"/>
<stop offset="0.1497" stop-color="#FC299E" stop-opacity="0.15"/>
<stop offset="0.4099" stop-color="#F62681" stop-opacity="0.41"/>
<stop offset="0.7468" stop-color="#EC2254" stop-opacity="0.747"/>
<stop offset="1" stop-color="#E41F2D"/>
</linearGradient>
<linearGradient id="paint8_linear_8562_16204" x1="112.652" y1="56.3678" x2="103.706" y2="86.7549" gradientUnits="userSpaceOnUse">
<stop stop-color="#FE2AA8" stop-opacity="0"/>
<stop offset="0.1497" stop-color="#FC299E" stop-opacity="0.15"/>
<stop offset="0.4099" stop-color="#F62681" stop-opacity="0.41"/>
<stop offset="0.7468" stop-color="#EC2254" stop-opacity="0.747"/>
<stop offset="1" stop-color="#E41F2D"/>
</linearGradient>
<linearGradient id="paint9_linear_8562_16204" x1="102.564" y1="53.3979" x2="93.6176" y2="83.7847" gradientUnits="userSpaceOnUse">
<stop stop-color="#FE2AA8" stop-opacity="0"/>
<stop offset="0.1497" stop-color="#FC299E" stop-opacity="0.15"/>
<stop offset="0.4099" stop-color="#F62681" stop-opacity="0.41"/>
<stop offset="0.7468" stop-color="#EC2254" stop-opacity="0.747"/>
<stop offset="1" stop-color="#E41F2D"/>
</linearGradient>
<linearGradient id="paint10_linear_8562_16204" x1="92.4201" y1="50.4114" x2="83.4736" y2="80.7983" gradientUnits="userSpaceOnUse">
<stop stop-color="#FE2AA8" stop-opacity="0"/>
<stop offset="0.1497" stop-color="#FC299E" stop-opacity="0.15"/>
<stop offset="0.4099" stop-color="#F62681" stop-opacity="0.41"/>
<stop offset="0.7468" stop-color="#EC2254" stop-opacity="0.747"/>
<stop offset="1" stop-color="#E41F2D"/>
</linearGradient>
<linearGradient id="paint11_linear_8562_16204" x1="85.193" y1="55.8441" x2="90.36" y2="61.0111" gradientUnits="userSpaceOnUse">
<stop stop-color="#FEAEE1"/>
<stop offset="0.1963" stop-color="#FEA3D7"/>
<stop offset="0.5371" stop-color="#FE87BF"/>
<stop offset="0.9794" stop-color="#FE5996"/>
<stop offset="1" stop-color="#FE5694"/>
</linearGradient>
<linearGradient id="paint12_linear_8562_16204" x1="24.3598" y1="6.67222" x2="32.884" y2="15.1967" gradientUnits="userSpaceOnUse">
<stop stop-color="#FEF056"/>
<stop offset="1" stop-color="#E8B800"/>
</linearGradient>
<linearGradient id="paint13_linear_8562_16204" x1="32.418" y1="9.29094" x2="26.2653" y2="11.4559" gradientUnits="userSpaceOnUse">
<stop stop-color="#FEA613" stop-opacity="0"/>
<stop offset="0.3753" stop-color="#FE9E11" stop-opacity="0.375"/>
<stop offset="0.9664" stop-color="#FE880A" stop-opacity="0.966"/>
<stop offset="1" stop-color="#FE860A"/>
</linearGradient>
<linearGradient id="paint14_linear_8562_16204" x1="28.9869" y1="14.5058" x2="32.0618" y2="1.20509" gradientUnits="userSpaceOnUse">
<stop stop-color="#FEA613" stop-opacity="0"/>
<stop offset="0.3753" stop-color="#FE9E11" stop-opacity="0.375"/>
<stop offset="0.9664" stop-color="#FE880A" stop-opacity="0.966"/>
<stop offset="1" stop-color="#FE860A"/>
</linearGradient>
<linearGradient id="paint15_linear_8562_16204" x1="28.7291" y1="15.0581" x2="28.7291" y2="18.9956" gradientUnits="userSpaceOnUse">
<stop stop-color="#FEA613" stop-opacity="0"/>
<stop offset="0.3753" stop-color="#FE9E11" stop-opacity="0.375"/>
<stop offset="0.9664" stop-color="#FE880A" stop-opacity="0.966"/>
<stop offset="1" stop-color="#FE860A"/>
</linearGradient>
<linearGradient id="paint16_linear_8562_16204" x1="28.6223" y1="5.17132" x2="30.8631" y2="12.0077" gradientUnits="userSpaceOnUse">
<stop stop-color="#FEA613" stop-opacity="0"/>
<stop offset="0.3753" stop-color="#FE9E11" stop-opacity="0.375"/>
<stop offset="0.9664" stop-color="#FE880A" stop-opacity="0.966"/>
<stop offset="1" stop-color="#FE860A"/>
</linearGradient>
<linearGradient id="paint17_linear_8562_16204" x1="73.7278" y1="23.7725" x2="84.17" y2="29.7993" gradientUnits="userSpaceOnUse">
<stop stop-color="#FEF056"/>
<stop offset="1" stop-color="#E8B800"/>
</linearGradient>
<linearGradient id="paint18_linear_8562_16204" x1="82.1904" y1="24.2154" x2="76.8074" y2="27.9003" gradientUnits="userSpaceOnUse">
<stop stop-color="#FEA613" stop-opacity="0"/>
<stop offset="0.3753" stop-color="#FE9E11" stop-opacity="0.375"/>
<stop offset="0.9664" stop-color="#FE880A" stop-opacity="0.966"/>
<stop offset="1" stop-color="#FE860A"/>
</linearGradient>
<linearGradient id="paint19_linear_8562_16204" x1="80.2267" y1="30.1416" x2="79.7522" y2="16.4967" gradientUnits="userSpaceOnUse">
<stop stop-color="#FEA613" stop-opacity="0"/>
<stop offset="0.3753" stop-color="#FE9E11" stop-opacity="0.375"/>
<stop offset="0.9664" stop-color="#FE880A" stop-opacity="0.966"/>
<stop offset="1" stop-color="#FE860A"/>
</linearGradient>
<linearGradient id="paint20_linear_8562_16204" x1="80.1207" y1="30.7416" x2="81.1405" y2="34.5452" gradientUnits="userSpaceOnUse">
<stop stop-color="#FEA613" stop-opacity="0"/>
<stop offset="0.3753" stop-color="#FE9E11" stop-opacity="0.375"/>
<stop offset="0.9664" stop-color="#FE880A" stop-opacity="0.966"/>
<stop offset="1" stop-color="#FE860A"/>
</linearGradient>
<linearGradient id="paint21_linear_8562_16204" x1="77.457" y1="21.2189" x2="81.3923" y2="27.2425" gradientUnits="userSpaceOnUse">
<stop stop-color="#FEA613" stop-opacity="0"/>
<stop offset="0.3753" stop-color="#FE9E11" stop-opacity="0.375"/>
<stop offset="0.9664" stop-color="#FE880A" stop-opacity="0.966"/>
<stop offset="1" stop-color="#FE860A"/>
</linearGradient>
<linearGradient id="paint22_linear_8562_16204" x1="76.2253" y1="41.7537" x2="76.2253" y2="45.4111" gradientUnits="userSpaceOnUse">
<stop stop-color="#EAF6FF"/>
<stop offset="1" stop-color="#B3DAFE"/>
</linearGradient>
<linearGradient id="paint23_linear_8562_16204" x1="61.8023" y1="9.12292" x2="68.2837" y2="9.12292" gradientUnits="userSpaceOnUse">
<stop stop-color="#FB2B3A"/>
<stop offset="0.2681" stop-color="#F0233C"/>
<stop offset="0.732" stop-color="#D40F43"/>
<stop offset="1" stop-color="#C00148"/>
</linearGradient>
<linearGradient id="paint24_linear_8562_16204" x1="19.524" y1="36.3576" x2="30.7072" y2="53.4792" gradientUnits="userSpaceOnUse">
<stop stop-color="#99E6FC"/>
<stop offset="1" stop-color="#01C0FA"/>
</linearGradient>
<linearGradient id="paint25_linear_8562_16204" x1="29.2717" y1="32.9287" x2="29.2717" y2="38.0239" gradientUnits="userSpaceOnUse">
<stop stop-color="#017BAE" stop-opacity="0"/>
<stop offset="1" stop-color="#017BAE"/>
</linearGradient>
<linearGradient id="paint26_linear_8562_16204" x1="27.4726" y1="49.9951" x2="28.8608" y2="44.3651" gradientUnits="userSpaceOnUse">
<stop stop-color="#017BAE" stop-opacity="0"/>
<stop offset="1" stop-color="#017BAE"/>
</linearGradient>
<linearGradient id="paint27_linear_8562_16204" x1="45.8813" y1="27.5481" x2="61.1374" y2="39.1056" gradientUnits="userSpaceOnUse">
<stop stop-color="#BBEC6C"/>
<stop offset="1" stop-color="#81B823"/>
</linearGradient>
<linearGradient id="paint28_linear_8562_16204" x1="50.0791" y1="64.3345" x2="34.8231" y2="75.892" gradientUnits="userSpaceOnUse">
<stop stop-color="#FEF056"/>
<stop offset="1" stop-color="#E8B800"/>
</linearGradient>
<linearGradient id="paint29_linear_8562_16204" x1="69.3848" y1="87.0176" x2="75.2844" y2="108.187" gradientUnits="userSpaceOnUse">
<stop stop-color="#FB2B3A"/>
<stop offset="0.2681" stop-color="#F0233C"/>
<stop offset="0.732" stop-color="#D40F43"/>
<stop offset="1" stop-color="#C00148"/>
</linearGradient>
<linearGradient id="paint30_linear_8562_16204" x1="109.423" y1="4.93994" x2="94.1673" y2="16.4977" gradientUnits="userSpaceOnUse">
<stop stop-color="#99E6FC"/>
<stop offset="1" stop-color="#01C0FA"/>
</linearGradient>
<linearGradient id="paint31_linear_8562_16204" x1="52.6161" y1="80.7169" x2="59.1602" y2="87.2611" gradientUnits="userSpaceOnUse">
<stop stop-color="#FBC56D"/>
<stop offset="1" stop-color="#C5715A"/>
</linearGradient>
<linearGradient id="paint32_linear_8562_16204" x1="93.6371" y1="27.6027" x2="100.009" y2="33.975" gradientUnits="userSpaceOnUse">
<stop stop-color="#FBC56D"/>
<stop offset="1" stop-color="#C5715A"/>
</linearGradient>
<linearGradient id="paint33_linear_8562_16204" x1="13.8806" y1="20.1179" x2="21.057" y2="27.2941" gradientUnits="userSpaceOnUse">
<stop stop-color="#FBC56D"/>
<stop offset="1" stop-color="#C5715A"/>
</linearGradient>
<clipPath id="clip0_8562_16204">
<rect width="118" height="118" fill="white"/>
</clipPath>
</defs>
</svg>
