<svg width="32" height="32" viewBox="0 0 32 32" fill="none" xmlns="http://www.w3.org/2000/svg">
<g id="Frame" clip-path="url(#clip0_8562_17659)">
<path id="Vector" d="M28.9061 16.1352H3.1167C2.60889 16.1352 2.19727 15.7236 2.19727 15.2158V14.26C2.19727 13.7522 2.60889 13.3403 3.1167 13.3403H28.9061C29.414 13.3403 29.8256 13.7522 29.8256 14.26V15.2158C29.8256 15.7236 29.414 16.1352 28.9061 16.1352Z" fill="#EA4444"/>
<path id="Vector_2" d="M28.9813 21.8428H3.04126C2.60303 21.8428 2.24805 21.4875 2.24805 21.0493V18.4346C2.24805 17.9963 2.60327 17.6411 3.04126 17.6411H28.9813C29.4196 17.6411 29.7748 17.9963 29.7748 18.4346V21.0493C29.7748 21.4875 29.4196 21.8428 28.9813 21.8428Z" fill="#945B44"/>
<path id="Vector_3" d="M2.5298 18.499C2.32204 18.8884 2.51662 19.3757 2.93874 19.5054C3.87452 19.7925 4.15821 20.4944 5.54566 20.4944C7.28955 20.4944 7.28955 19.385 9.03368 19.385C10.7778 19.385 10.7778 20.4944 12.522 20.4944C14.2661 20.4944 14.2661 19.385 16.0105 19.385C17.7548 19.385 17.7548 20.4944 19.499 20.4944C21.2434 20.4944 21.2434 19.385 22.9875 19.385C24.7321 19.385 24.7321 20.4944 26.4765 20.4944C27.8642 20.4944 28.1479 19.7925 29.0839 19.5054C29.506 19.3757 29.7006 18.8884 29.4931 18.4988L28.9516 17.4836H3.07106L2.5298 18.499Z" fill="#87523E"/>
<path id="Vector_4" d="M30.7191 9.22689C29.35 5.55406 26.453 3.37902 23.5893 2.0924C18.78 -0.0682351 13.2429 -0.0682351 8.43357 2.0924C5.56981 3.37902 2.6726 5.55406 1.30347 9.22689C0.944582 10.1898 0.78052 11.2144 0.781252 12.242C0.781985 12.8497 1.28003 13.3404 1.88794 13.3404H30.1349C30.7426 13.3404 31.2408 12.8497 31.2413 12.242C31.2423 11.2142 31.078 10.1898 30.7191 9.22689Z" fill="#FFC265"/>
<path id="Vector_5" d="M31.2412 12.2419C31.2412 12.8496 30.7429 13.3403 30.1348 13.3403H1.88781C1.28039 13.3403 0.782105 12.8496 0.781372 12.2419C0.781372 12.0993 0.784546 11.9567 0.790894 11.8149H26.9234C27.4981 11.8149 27.9692 11.351 27.97 10.7766C27.9705 9.80514 27.8154 8.83615 27.4761 7.926C26.1814 4.45335 23.4419 2.39672 20.7347 1.18017C20.5577 1.10059 20.3794 1.02368 20.2 0.950684C21.3565 1.21826 22.4917 1.59887 23.5896 2.09228C26.4534 3.37938 29.3501 5.55418 30.7192 9.22677C31.0781 10.1897 31.2424 11.2141 31.2412 12.2419Z" fill="#FFB541"/>
<path id="Vector_6" d="M26.4826 31.5312H5.54027C3.31933 31.5312 1.5188 29.7307 1.5188 27.5098V26.124C1.5188 25.3965 2.10864 24.8066 2.83618 24.8066H29.1867C29.9142 24.8066 30.504 25.3965 30.504 26.124V27.5098C30.504 29.7307 28.7035 31.5312 26.4826 31.5312Z" fill="#FFC265"/>
<path id="Vector_7" d="M30.504 26.1238V27.5098C30.504 29.7309 28.7038 31.5312 26.4826 31.5312H5.54051C4.25951 31.5312 3.11938 30.9331 2.38232 30.0002C2.78491 30.1352 3.21557 30.2085 3.66308 30.2085H24.9884C26.9984 30.2085 28.6273 28.5793 28.6273 26.5701V24.8066H29.1869C29.9139 24.8066 30.504 25.3962 30.504 26.1238Z" fill="#FFB541"/>
<path id="Vector_8" d="M2.5298 17.1506C2.32204 17.5403 2.51662 18.0276 2.93874 18.1572C3.87452 18.4443 4.15821 19.1462 5.54566 19.1462C7.28955 19.1462 7.28955 18.0369 9.03368 18.0369C10.7778 18.0369 10.7778 19.1462 12.522 19.1462C14.2661 19.1462 14.2661 18.0369 16.0105 18.0369C17.7548 18.0369 17.7548 19.1462 19.499 19.1462C21.2434 19.1462 21.2434 18.0369 22.9875 18.0369C24.7321 18.0369 24.7321 19.1462 26.4765 19.1462C27.8642 19.1462 28.1479 18.4443 29.0839 18.157C29.506 18.0276 29.7006 17.5403 29.4931 17.1506L28.9516 16.1355H3.07106L2.5298 17.1506Z" fill="#43CD8E"/>
<path id="Vector_9" d="M2.5298 17.1506C2.32204 17.5403 2.51662 18.0276 2.93874 18.1572C3.87452 18.4443 4.15821 19.1462 5.54566 19.1462C7.28955 19.1462 7.28955 18.0369 9.03368 18.0369C10.7778 18.0369 10.7778 19.1462 12.522 19.1462C14.2661 19.1462 14.2661 18.0369 16.0105 18.0369C17.7548 18.0369 17.7548 19.1462 19.499 19.1462C21.2434 19.1462 21.2434 18.0369 22.9875 18.0369C24.7321 18.0369 24.7321 19.1462 26.4765 19.1462C27.8642 19.1462 28.1479 18.4443 29.0839 18.157C29.506 18.0276 29.7006 17.5403 29.4931 17.1506L28.9516 16.1355H3.07106L2.5298 17.1506Z" fill="#43CD8E"/>
<path id="Vector_10" d="M5.06641 13.3506L11.5556 16.7737C12.1882 17.1074 12.8662 17.1118 13.5002 16.7861L20.1913 13.3506H5.06641Z" fill="#FBC700"/>
<path id="Vector_11" d="M5.06641 13.3506L11.5556 16.7737C12.1882 17.1074 12.8662 17.1118 13.5002 16.7861L20.1913 13.3506H5.06641Z" fill="#E9B900"/>
<path id="Vector_12" d="M7.94751 13.3506L11.9646 15.4695C12.3562 15.676 12.7759 15.6787 13.1682 15.4773L17.3103 13.3506H7.94751Z" fill="#FBC700"/>
<path id="Vector_13" d="M28.3518 21.8428H3.71298C2.91514 21.8428 2.22837 22.4558 2.19102 23.2529C2.15098 24.104 2.82895 24.8066 3.67124 24.8066H5.41146C5.68612 24.8066 5.90902 25.0293 5.90902 25.3039V26.0373C5.90902 26.8557 6.53792 27.56 7.3553 27.5986C8.22835 27.6396 8.9488 26.9441 8.9488 26.0803V25.3039C8.9488 25.0293 9.17146 24.8066 9.44636 24.8066H10.9029C11.1776 24.8066 11.4002 25.0293 11.4002 25.3039V28.1689C11.4002 29.0085 12.0809 29.6889 12.9202 29.6889C13.7598 29.6889 14.4402 29.0085 14.4402 28.1689V25.3039C14.4402 25.0293 14.6631 24.8066 14.9378 24.8066H28.3101C29.1081 24.8066 29.7947 24.1933 29.8323 23.3962C29.8721 22.5454 29.1941 21.8428 28.3518 21.8428Z" fill="#FBC700"/>
<path id="Vector_14" d="M31.7104 12.2424C31.7114 11.1174 31.5256 10.0478 31.1587 9.0632C29.9451 5.80809 27.4632 3.31884 23.7815 1.6648C19.5496 -0.236564 14.7762 -0.519277 10.3407 0.868168C10.0936 0.94556 9.9559 1.2085 10.0333 1.45557C10.1104 1.70264 10.3734 1.84033 10.6207 1.76318C14.8372 0.444098 19.3746 0.712895 23.3973 2.52002C26.8416 4.06762 29.1572 6.37913 30.28 9.39059C30.6077 10.2697 30.7734 11.229 30.7727 12.2414C30.7725 12.5891 30.4863 12.8715 30.135 12.8715H1.88806C1.53674 12.8715 1.25061 12.5888 1.25037 12.2417C1.24963 11.2292 1.4154 10.27 1.74304 9.39059C2.86559 6.37913 5.1815 4.06762 8.62582 2.52002C8.86191 2.41382 8.96762 2.13647 8.86142 1.90015C8.75522 1.66406 8.47763 1.55835 8.24155 1.6648C4.55992 3.31884 2.07776 5.80809 0.864381 9.0632C0.49744 10.0478 0.311649 11.1174 0.312626 12.2424C0.313358 13.0786 0.975221 13.7636 1.80481 13.8071C1.75549 13.9492 1.72839 14.1013 1.72839 14.26V15.2158C1.72839 15.7182 1.9967 16.1589 2.39733 16.4028L2.11609 16.9301C1.98523 17.1755 1.94665 17.4548 2.00183 17.7219C1.86169 17.9245 1.77917 18.1699 1.77917 18.4345V21.0492C1.77917 21.4377 1.95569 21.7851 2.2323 22.017C1.93396 22.3402 1.74475 22.7626 1.72253 23.2309C1.70105 23.6916 1.83752 24.1315 2.10925 24.4931C1.48572 24.7721 1.05017 25.3979 1.05017 26.1239V27.5097C1.05017 29.9857 3.06432 32.0001 5.54039 32.0001H26.4827C28.9585 32.0001 30.9729 29.9857 30.9729 27.5097V26.1239C30.9729 25.3961 30.5352 24.7689 29.9092 24.4909C30.1384 24.1898 30.2813 23.8212 30.3003 23.4184C30.325 22.8949 30.1455 22.3981 29.7949 22.0129C30.0691 21.7812 30.2439 21.4355 30.2439 21.0492V18.4345C30.2439 18.1699 30.1611 17.9245 30.0212 17.7216C30.0764 17.4545 30.0376 17.1755 29.9067 16.9301L29.6257 16.4028C30.0264 16.1589 30.2947 15.718 30.2947 15.2158V14.26C30.2947 14.1013 30.2676 13.9489 30.2183 13.8071C31.0476 13.7636 31.7095 13.0786 31.7104 12.2424ZM29.3569 14.26V15.2158C29.3569 15.4643 29.1548 15.6664 28.9063 15.6664H16.7076L20.3243 13.8093H28.9063C29.1548 13.8093 29.3569 14.0114 29.3569 14.26ZM18.2518 13.8193L13.2862 16.3691C12.7913 16.623 12.2686 16.6196 11.7745 16.3588L6.96006 13.8193H18.2518ZM11.337 17.1884C11.7244 17.3928 12.1322 17.4951 12.5401 17.4951C12.9376 17.4951 13.3355 17.3979 13.7144 17.2031L14.8809 16.6042H28.6704L29.0794 17.3713C29.1135 17.435 29.1172 17.5104 29.0894 17.5773C29.074 17.6149 29.0347 17.6818 28.9465 17.7089C28.5383 17.8342 28.2361 18.0263 27.9695 18.1957C27.5632 18.4543 27.2124 18.6774 26.4766 18.6774C25.7407 18.6774 25.3899 18.4543 24.9837 18.196C24.521 17.9015 23.9964 17.5681 22.9876 17.5681C21.979 17.5681 21.4546 17.9015 20.9917 18.196C20.5855 18.4543 20.2347 18.6774 19.4991 18.6774C18.7632 18.6774 18.4127 18.4543 18.0064 18.196C17.5435 17.9015 17.0191 17.5681 16.0106 17.5681C15.0018 17.5681 14.4774 17.9015 14.0145 18.196C13.6085 18.4543 13.2576 18.6774 12.522 18.6774C11.7865 18.6774 11.4356 18.4543 11.0294 18.196C10.5667 17.9015 10.0421 17.5681 9.03354 17.5681C8.025 17.5681 7.50059 17.9015 7.03794 18.196C6.63194 18.4543 6.28111 18.6774 5.54552 18.6774C4.80992 18.6774 4.45909 18.4543 4.05309 18.196C3.78649 18.0263 3.48449 17.8342 3.07629 17.7089C2.98815 17.6818 2.94885 17.6149 2.93347 17.5776C2.90588 17.5104 2.9093 17.4352 2.94347 17.3713L3.35241 16.6042H10.2296L11.337 17.1884ZM3.54992 18.987C4.01256 19.2814 4.53722 19.6149 5.54576 19.6149C6.5543 19.6149 7.07871 19.2814 7.54136 18.987C7.94736 18.7287 8.29819 18.5055 9.03378 18.5055C9.76937 18.5055 10.1202 18.7287 10.5262 18.987C10.9891 19.2814 11.5135 19.6149 12.522 19.6149C13.5308 19.6149 14.0552 19.2814 14.5181 18.987C14.9241 18.7287 15.275 18.5055 16.0106 18.5055C16.7464 18.5055 17.097 18.7287 17.5032 18.987C17.9661 19.2814 18.4905 19.6149 19.4991 19.6149C20.5079 19.6149 21.0323 19.2814 21.4952 18.987C21.9012 18.7287 22.252 18.5055 22.9876 18.5055C23.7237 18.5055 24.0745 18.7287 24.4807 18.987C24.9434 19.2814 25.468 19.6149 26.4768 19.6149C27.4854 19.6149 28.01 19.2814 28.4729 18.987C28.7207 18.8295 28.9346 18.6933 29.2217 18.6052C29.2507 18.5964 29.2783 18.5851 29.3064 18.5741V21.0492C29.3064 21.2282 29.1607 21.3737 28.9817 21.3737H28.3545C28.3538 21.3737 28.3528 21.3737 28.3521 21.3737H3.713C3.71227 21.3737 3.71129 21.3737 3.71056 21.3737H3.04137C2.86242 21.3737 2.71691 21.2282 2.71691 21.0492V18.5741C2.74475 18.5851 2.77233 18.5964 2.80139 18.6054C3.08825 18.6933 3.30212 18.8295 3.54992 18.987ZM2.66613 14.26C2.66613 14.0114 2.86828 13.8093 3.11681 13.8093H4.9315L8.45175 15.6664H3.11681C2.86828 15.6664 2.66613 15.4643 2.66613 15.2158V14.26ZM30.0352 26.1239V27.5097C30.0352 29.4684 28.4414 31.0621 26.4827 31.0621H5.54039C3.58166 31.0621 1.98791 29.4684 1.98791 27.5097V26.1239C1.98791 25.6562 2.36853 25.2755 2.8363 25.2755H5.41173C5.42735 25.2755 5.44005 25.2882 5.44005 25.3039V26.037C5.44005 27.1251 6.27159 28.0167 7.33335 28.0668C7.8834 28.0924 8.40439 27.8981 8.80161 27.5192C9.19882 27.1403 9.41757 26.629 9.41757 26.08V25.3039C9.41757 25.2882 9.43051 25.2753 9.44613 25.2753H10.9027C10.9185 25.2753 10.9312 25.2882 10.9312 25.3039V28.1688C10.9312 29.2655 11.8236 30.1576 12.9202 30.1576C14.0169 30.1576 14.909 29.2655 14.909 28.1688C14.909 27.9098 14.699 27.6998 14.44 27.6998C14.1812 27.6998 13.9713 27.9098 13.9713 28.1688C13.9713 28.7484 13.4998 29.2199 12.9202 29.2199C12.3407 29.2199 11.869 28.7484 11.869 28.1688V25.3039C11.869 24.7711 11.4356 24.3378 10.9027 24.3378H9.44613C8.91342 24.3378 8.47983 24.7711 8.47983 25.3039V26.08C8.47983 26.3703 8.36411 26.6403 8.15415 26.8407C7.94443 27.0412 7.6688 27.1449 7.3773 27.13C6.82603 27.1041 6.37754 26.6139 6.37754 26.0373V25.3039C6.37754 24.7711 5.9442 24.3378 5.41148 24.3378H3.67126C3.39147 24.3378 3.13122 24.2262 2.9381 24.0238C2.74499 23.8217 2.64611 23.5556 2.6593 23.2751C2.6842 22.7443 3.15636 22.3124 3.71178 22.3117H28.353C28.6321 22.3119 28.8921 22.4233 29.085 22.6254C29.2778 22.8278 29.377 23.0937 29.3638 23.3744C29.3386 23.9057 28.866 24.3378 28.3098 24.3378H14.9376C14.4049 24.3378 13.9715 24.7714 13.9715 25.3041V26.0143C13.9715 26.2733 14.1812 26.4831 14.4403 26.4831C14.6993 26.4831 14.909 26.2733 14.909 26.0143V25.3041C14.909 25.2885 14.9217 25.2758 14.9373 25.2755H29.1868C29.6546 25.2755 30.0352 25.6562 30.0352 26.1239Z" fill="black"/>
<path id="Vector_15" d="M13.5691 3.23242C13.5691 3.55566 13.3071 3.81762 12.9839 3.81762C12.6606 3.81762 12.3987 3.55566 12.3987 3.23242C12.3987 2.90918 12.6606 2.64722 12.9839 2.64722C13.3071 2.64722 13.5691 2.90918 13.5691 3.23242Z" fill="black"/>
<path id="Vector_16" d="M19.6243 3.23242C19.6243 3.55566 19.3623 3.81762 19.0391 3.81762C18.7158 3.81762 18.4539 3.55566 18.4539 3.23242C18.4539 2.90918 18.7158 2.64722 19.0391 2.64722C19.3623 2.64722 19.6243 2.90918 19.6243 3.23242Z" fill="black"/>
<path id="Vector_17" d="M9.13916 5.73144C9.13916 6.05468 8.87719 6.31665 8.55395 6.31665C8.23071 6.31665 7.96875 6.05468 7.96875 5.73144C7.96875 5.4082 8.23071 5.14624 8.55395 5.14624C8.87719 5.14624 9.13916 5.4082 9.13916 5.73144Z" fill="black"/>
<path id="Vector_18" d="M16.5967 5.73144C16.5967 6.05468 16.3347 6.31665 16.0115 6.31665C15.6882 6.31665 15.4263 6.05468 15.4263 5.73144C15.4263 5.4082 15.6882 5.14624 16.0115 5.14624C16.3347 5.14624 16.5967 5.4082 16.5967 5.73144Z" fill="black"/>
<path id="Vector_19" d="M24.0542 5.73144C24.0542 6.05468 23.7922 6.31665 23.469 6.31665C23.1458 6.31665 22.8838 6.05468 22.8838 5.73144C22.8838 5.4082 23.1458 5.14624 23.469 5.14624C23.7922 5.14624 24.0542 5.4082 24.0542 5.73144Z" fill="black"/>
</g>
<defs>
<clipPath id="clip0_8562_17659">
<rect width="32" height="32" fill="white"/>
</clipPath>
</defs>
</svg>
