<svg width="120" height="120" viewBox="0 0 120 120" fill="none" xmlns="http://www.w3.org/2000/svg">
<g id="svg4593">
<g id="layer1">
<g id="g20571">
<g id="g21530">
<g id="g29267">
<path id="rect12891" d="M24.9482 3.74634H94.6971C99.8908 3.74634 104.072 7.9277 104.072 13.1215V106.996C104.072 112.19 99.8908 116.247 94.6971 116.247H24.9482C19.7545 116.247 15.5732 112.066 15.5732 106.872V13.1215C15.5732 7.9277 19.7545 3.74634 24.9482 3.74634Z" fill="#55A1FF"/>
<path id="rect13107" d="M24.9487 3.74683C19.755 3.74683 15.5737 7.92797 15.5737 13.1218V15.9624H104.072V13.1218C104.072 7.92797 99.891 3.74683 94.6973 3.74683H24.9487Z" fill="#FFC861"/>
<path id="path13178" d="M61.2256 9.43405C46.278 9.44823 31.2873 9.44119 16.3245 9.44119C15.844 10.5708 15.5737 11.8124 15.5737 13.1214V15.9633H63.7415C66.2831 13.6604 64.6554 9.43625 61.2256 9.43405Z" fill="#FFAB61"/>
<path id="rect13102" d="M59.8227 92.5747C52.5515 92.5747 46.6978 98.4286 46.6978 105.7V116.247H72.9478V105.7C72.9478 98.4286 67.094 92.5747 59.8227 92.5747Z" fill="#666666"/>
<path id="path13171" d="M78.6973 59.9749C78.6973 59.9961 76.5263 68.4929 75.7603 69.8258C70.4934 79.3296 57.7484 83.0744 48.9317 75.3594C45.7206 71.5203 39.9638 76.3359 43.1749 80.175C47.5865 84.4842 54.3865 86.7008 59.8814 86.7008C67.3949 86.7575 74.1326 83.2949 79.0086 77.7178C82.188 81.7946 87.3627 86.64 97.6268 86.7705C99.9206 86.7988 102.061 86.4708 104.072 85.9246V78.3257C102.236 78.9883 100.135 79.3841 97.7073 79.3841C85.9523 79.2346 81.7222 70.0639 81.7222 70.0639C81.1032 68.6551 78.6973 59.9749 78.6973 59.9749Z" fill="#488BFF"/>
<path id="rect12896" d="M18.0415 15.3394H41.2446V56.1021H3.74463L9.13526 23.7811C9.60404 19.1927 12.4449 15.3394 18.0415 15.3394Z" fill="#D1DCFF"/>
<path id="rect12900" d="M3.72607 56.0833V61.5678C3.72607 72.1306 12.0405 80.6325 22.3704 80.6325C32.7003 80.6325 41.2449 72.1495 41.2449 61.5866V56.1021L3.72607 56.0833Z" fill="#EFA956"/>
<path id="rect13073" d="M41.2451 15.3394H78.7451V56.1021H41.2451V15.3394Z" fill="#EFA956"/>
<path id="path13075" d="M41.2261 56.0833V61.5678C41.2261 72.1306 49.5405 80.6325 59.8704 80.6325C70.2002 80.6325 78.7449 72.1495 78.7449 61.5866V56.1021L41.2261 56.0833Z" fill="#D1DCFF"/>
<path id="path13084" d="M101.948 15.3394H78.7446V56.1021H116.245L110.854 23.7811C110.385 19.1927 107.544 15.3394 101.948 15.3394Z" fill="#D1DCFF"/>
<path id="path13086" d="M116.263 56.0833V61.5678C116.263 72.1306 107.949 80.6325 97.6192 80.6325C87.2893 80.6325 78.7446 72.1495 78.7446 61.5866V56.1021L116.263 56.0833Z" fill="#EFA956"/>
</g>
</g>
</g>
</g>
</g>
</svg>
