<svg width="108" height="108" viewBox="0 0 108 108" fill="none" xmlns="http://www.w3.org/2000/svg">
<g id="Frame">
<g id="Layer 2">
<g id="icons">
<g id="Group">
<g id="Group_2">
<path id="Vector" d="M35.7916 51.9335L40.1761 54.5352C40.173 53.1393 40.181 51.494 40.1772 51.4253C37.7148 50.4735 35.4319 49.1713 33.3847 47.5708C31.7723 48.5524 30.4569 49.9884 29.3701 51.769C31.3044 50.755 33.7226 50.7056 35.7916 51.9335Z" fill="white"/>
<path id="Vector_2" d="M58.8975 56.2991C58.9 56.0893 58.937 51.5571 58.937 51.5571C56.2041 52.5688 53.2736 53.1687 50.2075 53.2247V59.7977C54.2492 60.1536 58.8672 59.0502 58.8978 56.2991H58.8975Z" fill="white"/>
<path id="Vector_3" d="M67.0575 40.5323C67.2102 40.5323 67.362 40.5298 67.5141 40.527C70.5233 36.6902 72.3193 31.8591 72.3193 26.6153C72.3193 14.1624 62.1908 4.03418 49.7382 4.03418C46.912 4.03418 44.2062 4.55729 41.7101 5.50966C40.8461 8.13461 40.3779 10.9387 40.3779 13.853C40.3779 28.5876 52.3228 40.5323 67.0575 40.5323Z" fill="white"/>
<path id="Vector_4" d="M72.2761 68.4409C67.856 70.4343 66.8277 81.9375 69.0496 102.734L84.2955 94.1068L80.3365 73.5153C78.9982 68.4351 76.5331 65.9316 72.2764 68.4412L72.2761 68.4409Z" fill="white"/>
<path id="Vector_5" d="M70.4442 64.8558C70.6777 64.7203 70.882 64.6761 71.1092 64.5621L62.1285 59.1794C61.5002 60.2513 60.5409 61.2197 59.2167 61.9841C58.2749 62.526 57.2157 62.9489 56.0913 63.2531L59.368 65.0096C62.1763 66.5152 64.2571 68.9864 65.2926 71.8664C66.373 68.188 68.0815 65.915 70.4442 64.8558Z" fill="white"/>
</g>
<path id="Vector_6" d="M50.2075 59.798V53.225C50.0515 53.2277 49.8953 53.2305 49.7385 53.2305C47.8428 53.2305 45.9961 53.0237 44.2114 52.6453C44.2114 52.6453 44.263 56.1017 44.2548 56.3073C44.1744 58.3228 47.0108 59.5164 50.2075 59.798Z" fill="#138881"/>
<path id="Vector_7" d="M49.7388 49.1962C56.9478 49.1962 63.3775 45.8017 67.5146 40.5269C67.3625 40.5297 67.2107 40.5322 67.0581 40.5322C52.3234 40.5322 40.3785 28.5872 40.3785 13.8526C40.3785 10.9386 40.8469 8.13423 41.7107 5.50928C33.2095 8.75258 27.1538 16.9885 27.1538 26.6152C27.1538 39.0677 37.2862 49.1962 49.7388 49.1962Z" fill="#138881"/>
<path id="Vector_8" d="M59.3682 65.0094L56.0915 63.2529C54.6574 63.6408 53.1173 63.8354 51.5781 63.8354C48.8283 63.8354 46.0786 63.2168 43.9354 61.9798C41.5638 60.6166 40.2363 58.6352 40.2126 56.4842C40.1872 56.5066 40.1784 55.5923 40.1759 54.535L35.7914 51.9333C33.7224 50.7054 31.3045 50.7548 29.3702 51.7687C25.7186 57.7524 24.6592 67.6355 23.6549 77.3162L23.5483 78.3603L64.9444 102.256C63.4374 87.7536 63.5166 77.9111 65.2927 71.8662C64.2573 68.9862 62.1764 66.515 59.3682 65.0094Z" fill="#138881"/>
<path id="Vector_9" d="M84.2562 72.5614C83.0822 68.0469 81.0496 65.1553 78.2171 63.9732L62.9712 54.9887V49.6742C70.9543 45.0741 76.3535 36.471 76.3535 26.6153C76.3538 11.9405 64.413 0 49.7385 0C35.064 0 23.1194 11.9405 23.1194 26.6153C23.1194 33.6462 25.8802 40.0312 30.3502 44.7942C22.487 50.4598 21.0002 63.8355 19.6448 76.8987C19.5382 78.2825 18.8434 80.8716 20.744 81.4016L66.371 107.737C66.9778 108.091 67.7587 108.08 68.3762 107.749L87.5418 96.9034C88.2943 96.4739 88.6921 95.6151 88.5306 94.7643L84.2562 72.5614ZM27.1536 26.6153C27.1536 16.9886 33.2095 8.75268 41.7107 5.50938C44.2065 4.55729 46.9126 4.0339 49.7388 4.0339C62.1916 4.0339 72.3199 14.1624 72.3199 26.615C72.3199 31.8588 70.5236 36.6899 67.5147 40.5267C63.3778 45.8015 56.9478 49.1961 49.7388 49.1961C37.2859 49.1961 27.1538 39.0676 27.1538 26.615L27.1536 26.6153ZM44.2115 52.645C45.9961 53.0235 47.8429 53.2302 49.7385 53.2302C49.8953 53.2302 50.0516 53.2275 50.2075 53.2247C53.2739 53.169 56.2044 52.5688 58.937 51.5571C58.937 51.5571 58.9 56.0893 58.8975 56.2991C58.8669 59.0502 54.2489 60.1535 50.2072 59.7977C47.0103 59.5164 44.1739 58.3222 44.2545 56.3068C44.2628 56.1011 44.2112 52.6447 44.2112 52.6447L44.2115 52.645ZM65.293 71.8663C63.5172 77.9112 63.438 87.7537 64.9447 102.256L23.5489 78.3604L23.6555 77.3163C24.6597 67.6356 25.7192 57.7525 29.3708 51.7688C30.4573 49.9883 31.7727 48.5523 33.3854 47.5707C35.4326 49.1712 37.7155 50.4733 40.1778 51.4252C40.1817 51.4939 40.1734 53.1391 40.1767 54.5351C40.1792 55.5924 40.1881 56.5067 40.2134 56.4843C40.2372 58.6353 41.5647 60.6168 43.9362 61.9799C46.0792 63.2169 48.8292 63.8355 51.5789 63.8355C53.1179 63.8355 54.6583 63.6409 56.0923 63.253C57.2167 62.9488 58.2759 62.5259 59.2178 61.984C60.542 61.2196 61.5012 60.2513 62.1295 59.1794L71.1102 64.562C70.883 64.6761 70.6788 64.7202 70.4452 64.8558C68.0828 65.915 66.3743 68.188 65.2936 71.8663H65.293ZM69.0501 102.734C66.8282 81.9374 67.8564 70.4339 72.2765 68.4405C76.5335 65.931 78.9983 68.4345 80.3366 73.5146L84.2957 94.1062L69.0498 102.734L69.0501 102.734Z" fill="#0F263B"/>
</g>
</g>
</g>
</g>
</svg>
