<svg width="204" height="173" viewBox="0 0 204 173" fill="none" xmlns="http://www.w3.org/2000/svg">
<g id="Layer_1" clip-path="url(#clip0_8562_15932)">
<path id="Vector" d="M195.531 128.385V146.89H191.831V150.59H188.131V157.941H191.831V161.668H195.531V172.796H184.428V161.668H177.026V172.796H166.024V128.383H195.531V128.385ZM184.428 150.539V139.513H177.026V150.539H184.428Z" fill="#009B06"/>
<path id="Vector_2" d="M122.775 139.565C120.214 139.565 118.136 141.646 118.136 144.215V168.251C118.136 170.818 116.06 172.901 113.497 172.901H111.772C109.211 172.901 107.132 170.82 107.132 168.251V144.215C107.132 141.648 105.056 139.565 102.493 139.565C99.9319 139.565 97.8535 137.484 97.8535 134.915V133.085C97.8535 130.518 99.9298 128.435 102.493 128.435H122.773C125.334 128.435 127.413 130.516 127.413 133.085V134.915C127.413 137.482 125.336 139.565 122.773 139.565H122.775Z" fill="#009B06"/>
<path id="Vector_3" d="M50.9222 172.949H45.0528C44.0712 172.949 43.13 172.559 42.4352 171.862L33.6007 163.008C32.9059 162.311 32.5161 161.368 32.5161 160.384V132.195C32.5161 130.146 34.1723 128.486 36.2163 128.486H39.8155C41.8595 128.486 43.5157 130.146 43.5157 132.195V158.111C43.5157 160.159 45.1719 161.819 47.2159 161.819C49.2599 161.819 50.9161 160.159 50.9161 158.111V132.195C50.9161 130.146 52.5724 128.486 54.6164 128.486H58.3671C60.4111 128.486 62.0673 130.146 62.0673 132.195V160.279C62.0673 161.265 61.6754 162.212 60.9766 162.908L50.9121 172.949H50.9222Z" fill="#009B06"/>
<path id="Vector_4" d="M29.5065 132.247V169.291C29.5065 171.34 27.8503 173 25.8063 173H22.1061C20.0621 173 18.4059 171.34 18.4059 169.291C18.4059 167.243 16.7497 165.583 14.7057 165.583C12.6617 165.583 11.0055 167.243 11.0055 169.291C11.0055 171.34 9.34928 173 7.30528 173H3.70606C1.66206 173 0.00585938 171.34 0.00585938 169.291V151.906C0.00585938 139 10.444 128.538 23.32 128.538H25.8124C27.8564 128.538 29.5126 130.198 29.5126 132.247H29.5065ZM14.7037 139.666C12.6597 139.666 11.0035 141.326 11.0035 143.375V147.084C11.0035 149.132 12.6597 150.792 14.7037 150.792C16.7477 150.792 18.4039 149.132 18.4039 147.084V143.375C18.4039 141.326 16.7477 139.666 14.7037 139.666Z" fill="#009B06"/>
<path id="Vector_5" d="M94.5431 132.247V169.291C94.5431 171.34 92.8869 173 90.8429 173H87.1427C85.0987 173 83.4425 171.34 83.4425 169.291C83.4425 167.243 81.7863 165.583 79.7423 165.583C77.6983 165.583 76.0421 167.243 76.0421 169.291C76.0421 171.34 74.3859 173 72.3419 173H68.7427C66.6987 173 65.0425 171.34 65.0425 169.291V132.247C65.0425 130.198 66.6987 128.538 68.7427 128.538H90.847C92.891 128.538 94.5472 130.198 94.5472 132.247H94.5431ZM79.7403 139.666C77.6963 139.666 76.0401 141.326 76.0401 143.375V147.084C76.0401 149.132 77.6963 150.792 79.7403 150.792C81.7843 150.792 83.4405 149.132 83.4405 147.084V143.375C83.4405 141.326 81.7843 139.666 79.7403 139.666Z" fill="#009B06"/>
<path id="Vector_6" d="M160.185 132.247V169.291C160.185 171.34 158.529 173 156.485 173H152.785C150.741 173 149.085 171.34 149.085 169.291C149.085 167.243 147.428 165.583 145.384 165.583C143.34 165.583 141.684 167.243 141.684 169.291C141.684 171.34 140.028 173 137.984 173H134.385C132.341 173 130.685 171.34 130.685 169.291V132.247C130.685 130.198 132.341 128.538 134.385 128.538H156.489C158.533 128.538 160.189 130.198 160.189 132.247H160.185ZM145.382 139.666C143.338 139.666 141.682 141.326 141.682 143.375V147.084C141.682 149.132 143.338 150.792 145.382 150.792C147.426 150.792 149.083 149.132 149.083 147.084V143.375C149.083 141.326 147.426 139.666 145.382 139.666Z" fill="#009B06"/>
<path id="Vector_7" d="M122.775 122.16H102.495C99.9338 122.16 97.8555 124.241 97.8555 126.81V128.64C97.8555 131.207 99.9318 133.29 102.495 133.29C105.058 133.29 107.134 135.371 107.134 137.94V161.975C107.134 164.542 109.211 166.625 111.774 166.625H113.499C116.06 166.625 118.138 164.544 118.138 161.975V137.94C118.138 135.373 120.214 133.29 122.777 133.29C125.34 133.29 127.417 131.209 127.417 128.64V126.81C127.417 124.243 125.34 122.16 122.777 122.16H122.775Z" fill="white"/>
<path id="Vector_8" d="M58.3754 122.21H54.6247C52.5807 122.21 50.9244 123.87 50.9244 125.919V151.835C50.9244 153.884 49.2682 155.544 47.2242 155.544C45.1802 155.544 43.524 153.884 43.524 151.835V125.919C43.524 123.87 41.8678 122.21 39.8238 122.21H36.2246C34.1806 122.21 32.5244 123.87 32.5244 125.919V154.108C32.5244 155.092 32.9142 156.036 33.609 156.732L42.4435 165.587C43.1383 166.283 44.0795 166.674 45.0611 166.674H50.9305L60.995 156.633C61.6918 155.936 62.0857 154.991 62.0857 154.003V125.919C62.0857 123.87 60.4295 122.21 58.3855 122.21H58.3754Z" fill="white"/>
<path id="Vector_9" d="M25.8065 122.261H23.3141C10.4381 122.261 0 132.723 0 145.628V163.014C0 165.062 1.6562 166.722 3.7002 166.722H7.29942C9.34342 166.722 10.9996 165.062 10.9996 163.014C10.9996 160.965 12.6558 159.305 14.6998 159.305C16.7438 159.305 18.4 160.965 18.4 163.014C18.4 165.062 20.0562 166.722 22.1002 166.722H25.8004C27.8444 166.722 29.5006 165.062 29.5006 163.014V125.969C29.5006 123.921 27.8444 122.261 25.8004 122.261H25.8065ZM18.4041 140.808C18.4041 142.857 16.7479 144.517 14.7039 144.517C12.6599 144.517 11.0037 142.857 11.0037 140.808V137.099C11.0037 135.051 12.6599 133.391 14.7039 133.391C16.7479 133.391 18.4041 135.051 18.4041 137.099V140.808Z" fill="white"/>
<path id="Vector_10" d="M90.843 122.261H68.7388C66.6948 122.261 65.0386 123.921 65.0386 125.969V163.014C65.0386 165.062 66.6948 166.722 68.7388 166.722H72.338C74.382 166.722 76.0382 165.062 76.0382 163.014C76.0382 160.965 77.6944 159.305 79.7384 159.305C81.7824 159.305 83.4386 160.965 83.4386 163.014C83.4386 165.062 85.0948 166.722 87.1388 166.722H90.839C92.883 166.722 94.5392 165.062 94.5392 163.014V125.969C94.5392 123.921 92.883 122.261 90.839 122.261H90.843ZM83.4406 140.808C83.4406 142.857 81.7844 144.517 79.7404 144.517C77.6964 144.517 76.0402 142.857 76.0402 140.808V137.099C76.0402 135.051 77.6964 133.391 79.7404 133.391C81.7844 133.391 83.4406 135.051 83.4406 137.099V140.808Z" fill="white"/>
<path id="Vector_11" d="M156.485 122.261H134.381C132.337 122.261 130.681 123.921 130.681 125.969V163.014C130.681 165.062 132.337 166.722 134.381 166.722H137.98C140.024 166.722 141.68 165.062 141.68 163.014C141.68 160.965 143.336 159.305 145.38 159.305C147.424 159.305 149.081 160.965 149.081 163.014C149.081 165.062 150.737 166.722 152.781 166.722H156.481C158.525 166.722 160.181 165.062 160.181 163.014V125.969C160.181 123.921 158.525 122.261 156.481 122.261H156.485ZM149.083 140.808C149.083 142.857 147.427 144.517 145.383 144.517C143.339 144.517 141.682 142.857 141.682 140.808V137.099C141.682 135.051 143.339 133.391 145.383 133.391C147.427 133.391 149.083 135.051 149.083 137.099V140.808Z" fill="white"/>
<path id="Vector_12" d="M191.831 144.316V140.616H195.531V128.443H189.458V122.109H166.024V166.522H177.026V155.394H184.428V166.522H195.531V155.394H191.831V151.667H188.131V144.316H191.831ZM184.428 144.266H177.026V133.239H184.428V144.266Z" fill="white"/>
<path id="Vector_13" d="M109.166 84.6213C109.362 93.1277 109.463 99.7515 109.463 104.499C109.463 107.861 108.524 110.458 106.651 112.287C104.775 114.115 102.161 115.032 98.8066 115.032C95.4517 115.032 92.7877 114.141 90.8144 112.361C88.839 110.582 87.8554 108.207 87.8554 105.242V65.1912C87.8554 55.5005 87.5585 47.9617 86.9667 42.5707C86.3749 37.1818 85.6357 34.4873 84.747 34.4873C83.9553 34.4873 82.7717 36.5644 81.1942 40.7164C79.6148 44.8704 78.2353 48.9739 77.0497 53.0287C75.3713 58.5674 73.6464 64.9948 71.869 72.313C71.1782 74.9832 69.8452 76.963 67.8739 78.2465C65.8986 79.532 63.287 80.1737 60.0292 80.1737C53.4185 80.1737 49.4214 77.7525 48.0419 72.9061L46.2665 66.5273C44.883 61.4846 43.455 56.788 41.9745 52.4356C40.7909 48.9759 39.3104 45.1194 37.5351 40.8662C35.7597 36.615 34.6246 34.4873 34.1318 34.4873C33.54 34.4873 33.0956 37.2324 32.8007 42.7205C32.5038 48.2086 32.2574 55.5025 32.0615 64.6001C31.9625 68.161 31.9141 72.9061 31.9141 78.8396L32.0615 105.539C32.0615 108.209 31.0739 110.359 29.1026 111.991C27.1272 113.623 24.4147 114.438 20.9629 114.438C17.5112 114.438 15.0167 113.548 13.1929 111.768C11.367 109.989 10.4541 106.924 10.4541 102.571L10.6015 83.8824C10.7975 75.5763 10.8984 69.0011 10.8984 64.1547C10.8984 50.7067 11.5872 39.9026 12.9707 31.7443C14.3522 23.586 16.5235 17.6303 19.4824 13.871C22.4414 10.1137 26.3395 8.23511 31.1748 8.23511C36.9958 8.23511 41.8048 10.5591 45.604 15.2071C49.4012 19.8571 52.2632 25.0962 54.188 30.9305C56.1108 36.7668 57.9609 43.6882 59.7383 51.6966C61.6106 43.9837 63.6344 37.1373 65.8057 31.1532C67.9749 25.1711 71.0086 19.8571 74.9067 15.2071C78.8028 10.5611 83.5634 8.23511 89.1885 8.23511C94.3166 8.23511 98.3137 10.387 101.176 14.6868C104.036 18.9886 106.033 25.1691 107.17 33.2282C108.303 41.2893 108.873 51.6481 108.873 64.3045C108.873 69.3473 108.97 76.1229 109.168 84.6253L109.166 84.6213Z" fill="#009B06"/>
<path id="Vector_14" d="M154.407 111.171C152.532 109.392 151.595 106.969 151.595 103.904L151.151 88.8341C149.767 88.8341 147.178 86.9311 143.381 83.1233C139.582 79.3174 136.596 75.7808 134.427 72.5175C132.551 69.7502 130.38 65.9423 127.916 61.0959C125.447 56.2516 123.228 51.306 121.256 46.2632C120.959 45.4737 120.812 44.6822 120.812 43.8907C120.812 41.4209 122.02 39.1435 124.437 37.0665C126.853 34.9894 129.739 33.9509 133.094 33.9509C135.461 33.9509 137.435 34.5704 139.014 35.8053C140.592 37.0422 142.022 38.9937 143.306 41.6638C147.943 51.2574 151.642 58.4258 154.405 63.1729C158.349 69.6996 161.013 72.9629 162.397 72.9629C163.677 72.9629 166.097 69.6996 169.648 63.1729L181.191 41.0707C182.471 38.6981 183.73 36.9693 184.964 35.8781C186.196 34.791 188.145 34.2465 190.809 34.2465C194.459 34.2465 197.468 35.0623 199.837 36.694C202.204 38.3256 203.39 40.5767 203.39 43.4433C203.39 44.4332 203.043 45.8685 202.354 47.7451C201.465 50.0205 199.516 54.1482 196.509 60.1303C193.497 66.1144 191.108 70.4405 189.33 73.1086C186.963 76.7687 183.93 80.3033 180.229 83.7144C176.529 87.1255 173.988 88.832 172.607 88.832L173.051 103.456C173.051 106.72 172.138 109.266 170.312 111.096C168.484 112.926 165.847 113.841 162.395 113.841C158.943 113.841 156.277 112.951 154.403 111.171H154.407Z" fill="#009B06"/>
<path id="Vector_15" d="M106.674 76.3922C106.87 84.8987 106.971 91.5225 106.971 96.2697C106.971 99.6322 106.031 102.229 104.159 104.057C102.283 105.886 99.6692 106.803 96.3144 106.803C92.9596 106.803 90.2955 105.912 88.3222 104.132C86.3469 102.353 85.3632 99.9784 85.3632 97.0126V56.9622C85.3632 47.2714 85.0663 39.7326 84.4745 34.3417C83.8827 28.9528 83.1435 26.2583 82.2548 26.2583C81.4631 26.2583 80.2795 28.3353 78.7021 32.4873C77.1226 36.6414 75.7431 40.7448 74.5575 44.7997C72.8791 50.3384 71.1542 56.7658 69.3768 64.084C68.6861 66.7541 67.353 68.734 65.3817 70.0174C63.4064 71.3029 60.7948 71.9447 57.537 71.9447C50.9263 71.9447 46.9292 69.5235 45.5497 64.6771L43.7743 58.2983C42.3908 53.2555 40.9628 48.5589 39.4823 44.2065C38.2987 40.7468 36.8183 36.8904 35.0429 32.6372C33.2675 28.3859 32.1324 26.2583 31.6396 26.2583C31.0478 26.2583 30.6034 29.0034 30.3086 34.4915C30.0117 39.9796 29.7652 47.2735 29.5693 56.3711C29.4704 59.9319 29.4219 64.6771 29.4219 70.6106L29.5693 97.3102C29.5693 99.9804 28.5817 102.13 26.6104 103.762C24.635 105.394 21.9225 106.209 18.4707 106.209C15.019 106.209 12.5246 105.319 10.7007 103.539C8.87485 101.76 7.96191 98.6949 7.96191 94.3425L8.10936 75.6533C8.30527 67.3473 8.40626 60.7721 8.40626 55.9257C8.40626 42.4777 9.095 31.6735 10.4785 23.5153C11.8601 15.357 14.0313 9.40125 16.9903 5.64196C19.9492 1.88065 23.8453 0 28.6806 0C34.5016 0 39.3106 2.324 43.1098 6.97199C46.907 11.622 49.769 16.8611 51.6938 22.6954C53.6166 28.5317 55.4667 35.4531 57.2441 43.4615C59.1164 35.7486 61.1402 28.9022 63.3115 22.9181C65.4807 16.936 68.5144 11.622 72.4125 6.97199C76.3107 2.324 81.0712 0 86.6943 0C91.8224 0 95.8195 2.15192 98.6815 6.45172C101.542 10.7535 103.539 16.934 104.676 24.9931C105.809 33.0542 106.379 43.413 106.379 56.0694C106.379 61.1122 106.476 67.8878 106.674 76.3902V76.3922Z" fill="white"/>
<path id="Vector_16" d="M151.915 102.944C150.04 101.165 149.103 98.7415 149.103 95.6765L148.659 80.607C147.275 80.607 144.686 78.7041 140.889 74.8962C137.089 71.0904 134.104 67.5538 131.935 64.2905C130.059 61.5231 127.887 57.7153 125.423 52.8689C122.955 48.0245 120.735 43.0789 118.764 38.0362C118.467 37.2467 118.32 36.4551 118.32 35.6636C118.32 33.1939 119.528 30.9164 121.945 28.8394C124.361 26.7624 127.247 25.7239 130.602 25.7239C132.969 25.7239 134.942 26.3433 136.522 27.5782C138.099 28.8151 139.529 30.7666 140.814 33.4368C145.451 43.0304 149.149 50.1987 151.913 54.9459C155.857 61.4725 158.521 64.7358 159.905 64.7358C161.185 64.7358 163.605 61.4725 167.156 54.9459L178.699 32.8436C179.979 30.4711 181.237 28.7422 182.472 27.6511C183.704 26.564 185.653 26.0194 188.317 26.0194C191.966 26.0194 194.976 26.8353 197.345 28.4669C199.712 30.0986 200.898 32.3497 200.898 35.2162C200.898 36.2061 200.55 37.6414 199.862 39.518C198.973 41.7935 197.024 45.9212 194.016 51.9032C191.005 57.8873 188.616 62.2134 186.838 64.8816C184.471 68.5417 181.437 72.0762 177.737 75.4873C174.037 78.8984 171.496 80.605 170.115 80.605L170.559 95.2291C170.559 98.4925 169.646 101.039 167.82 102.869C165.992 104.699 163.354 105.614 159.903 105.614C156.451 105.614 153.785 104.724 151.91 102.944H151.915Z" fill="white"/>
<path id="Vector_17" d="M122.695 23.58C127.318 23.58 131.067 19.8232 131.067 15.1889C131.067 10.5547 127.318 6.79785 122.695 6.79785C118.071 6.79785 114.323 10.5547 114.323 15.1889C114.323 19.8232 118.071 23.58 122.695 23.58Z" fill="#009B06"/>
<path id="Vector_18" d="M195.626 23.58C200.25 23.58 203.998 19.8232 203.998 15.1889C203.998 10.5547 200.25 6.79785 195.626 6.79785C191.002 6.79785 187.254 10.5547 187.254 15.1889C187.254 19.8232 191.002 23.58 195.626 23.58Z" fill="#009B06"/>
<path id="Vector_19" d="M122.695 19.3085C127.318 19.3085 131.067 15.5517 131.067 10.9174C131.067 6.28318 127.318 2.52637 122.695 2.52637C118.071 2.52637 114.323 6.28318 114.323 10.9174C114.323 15.5517 118.071 19.3085 122.695 19.3085Z" fill="white"/>
<path id="Vector_20" d="M195.626 19.3085C200.25 19.3085 203.998 15.5517 203.998 10.9174C203.998 6.28318 200.25 2.52637 195.626 2.52637C191.002 2.52637 187.254 6.28318 187.254 10.9174C187.254 15.5517 191.002 19.3085 195.626 19.3085Z" fill="white"/>
</g>
<defs>
<clipPath id="clip0_8562_15932">
<rect width="204" height="173" fill="white"/>
</clipPath>
</defs>
</svg>
