<svg width="40" height="40" viewBox="0 0 40 40" fill="none" xmlns="http://www.w3.org/2000/svg">
<g id="common_icon_24px">
<g id="icon">
<path d="M19.6159 10.8334C19.6159 10.3732 19.989 10.0001 20.4493 10.0001C23.2105 10.0001 25.4493 12.2386 25.4493 15.0001V16.6667C25.4493 17.127 25.0761 17.5001 24.6159 17.5001C24.1557 17.5001 23.7826 17.127 23.7826 16.6667V15.0001C23.7826 13.1591 22.2901 11.6667 20.4493 11.6667C19.989 11.6667 19.6159 11.2936 19.6159 10.8334Z" fill="white"/>
<path fill-rule="evenodd" clip-rule="evenodd" d="M10.2259 25.8334C9.58418 26.9445 10.3862 28.3334 11.6691 28.3334H28.2097C29.4926 28.3334 30.2942 26.9445 29.6529 25.8334C28.5962 23.0807 28.0721 20.1523 28.1088 17.2041L28.1376 14.865C28.1376 10.3372 24.467 6.66675 19.9394 6.66675C15.4114 6.66675 11.7412 10.3372 11.7412 14.865L11.7701 17.2041C11.8067 20.1523 11.2826 23.0807 10.2259 25.8334ZM13.4078 14.8552L13.4367 17.1833C13.4758 20.3429 12.9143 23.4809 11.7819 26.4307L11.7347 26.5532L11.6691 26.6667H28.2097L28.1437 26.5532L28.097 26.4307C26.9646 23.4809 26.403 20.3429 26.4421 17.1835L26.471 14.8552C26.4657 11.2525 23.5433 8.33341 19.9394 8.33341C16.3355 8.33341 13.4131 11.2525 13.4078 14.8552Z" fill="white"/>
<path fill-rule="evenodd" clip-rule="evenodd" d="M15.7662 30.7612L15.7972 30.8334C16.0055 31.3105 16.3013 31.7447 16.6695 32.1131C17.0565 32.4999 17.5159 32.8069 18.0213 33.0162C18.5271 33.2256 19.0686 33.3334 19.6159 33.3334C20.1632 33.3334 20.7048 33.2256 21.2106 33.0162C21.7159 32.8069 22.1753 32.4999 22.5623 32.1131C22.9305 31.7447 23.2264 31.3105 23.4347 30.8334L23.4656 30.7612C23.6748 30.2558 23.7826 29.7138 23.7826 29.1667H15.4493C15.4493 29.7138 15.5571 30.2558 15.7662 30.7612ZM21.4299 30.8871L21.3835 30.9345C21.1516 31.1667 20.8761 31.3508 20.5725 31.4765C20.2694 31.6021 19.9443 31.6667 19.6159 31.6667C19.3905 31.6667 19.1667 31.6362 18.9506 31.5766C18.8518 31.5494 18.7545 31.516 18.6593 31.4765C18.5238 31.4204 18.394 31.3526 18.2711 31.2741C18.1185 31.1768 17.9769 31.0631 17.8483 30.9345C17.8154 30.9016 17.7832 30.868 17.7527 30.8334H21.4791C21.4632 30.8515 21.447 30.8694 21.4299 30.8871Z" fill="white"/>
</g>
</g>
</svg>
