<svg width="150" height="144" viewBox="0 0 150 144" fill="none" xmlns="http://www.w3.org/2000/svg">
<g id="Filled_Outline" filter="url(#filter0_d_8562_17146)">
<path id="Vector" d="M64.8043 94.8381L107.283 117.205C108.926 118.071 110.96 117.44 111.826 115.796L143.806 55.0612C144.671 53.4176 144.041 51.3837 142.397 50.5183L99.9186 28.1511C98.275 27.2857 96.2411 27.9165 95.3757 29.5601L63.3954 90.2952C62.53 91.9388 63.1608 93.9727 64.8043 94.8381Z" fill="#E8CA95"/>
<path id="Vector_2" d="M107.843 108.634L71.5535 89.5259L99.3508 36.7349L135.64 55.8433L107.843 108.634Z" fill="#F94668"/>
<path id="Vector_3" d="M71.5591 89.6086L81.4224 70.877L117.714 89.9864L107.851 108.718L71.5591 89.6086Z" fill="#D63866"/>
<path id="Vector_4" d="M108.82 119.314C108.003 119.315 107.199 119.116 106.478 118.734L63.9975 96.3901C63.4103 96.0816 62.8897 95.6603 62.4654 95.1505C62.041 94.6407 61.7213 94.0523 61.5245 93.4188C61.3276 92.7854 61.2576 92.1194 61.3182 91.4588C61.3789 90.7983 61.5691 90.1562 61.878 89.5692L93.828 28.8327C94.1365 28.2454 94.5578 27.7247 95.0677 27.3002C95.5776 26.8758 96.1662 26.556 96.7998 26.3592C97.4333 26.1623 98.0995 26.0923 98.7601 26.153C99.4208 26.2138 100.063 26.4042 100.65 26.7132L143.13 49.058C144.314 49.6826 145.203 50.7516 145.6 52.0304C145.997 53.3091 145.87 54.6932 145.248 55.8789L113.298 116.615C112.868 117.43 112.224 118.112 111.434 118.588C110.645 119.063 109.741 119.315 108.82 119.314ZM98.2976 29.5066C97.9918 29.508 97.692 29.5924 97.4305 29.751C97.1689 29.9095 96.9554 30.1361 96.8126 30.4066L64.8626 91.1442C64.6561 91.5375 64.6142 91.9967 64.746 92.4209C64.8779 92.8451 65.1727 93.1996 65.5657 93.4066L108.045 115.751C108.439 115.955 108.897 115.996 109.321 115.864C109.744 115.732 110.099 115.439 110.308 115.048L142.258 54.3106C142.464 53.9173 142.506 53.4585 142.374 53.0345C142.243 52.6105 141.949 52.2558 141.556 52.0482L99.075 29.7001C98.8353 29.5738 98.5686 29.5074 98.2976 29.5066Z" fill="#543434"/>
<path id="Vector_5" d="M137.2 55.3781C137.067 54.951 136.77 54.5941 136.374 54.3858L100.088 35.2968C99.8915 35.1928 99.6768 35.1284 99.4558 35.1074C99.2348 35.0864 99.0119 35.1092 98.7998 35.1746C98.5876 35.2399 98.3904 35.3464 98.2195 35.488C98.0486 35.6297 97.9073 35.8036 97.8038 36L70.0343 88.7973C69.8263 89.1934 69.7841 89.6559 69.917 90.0831C70.0499 90.5103 70.347 90.8673 70.743 91.0755L107.034 110.164C107.43 110.373 107.892 110.416 108.319 110.285C108.746 110.153 109.103 109.857 109.313 109.462L137.082 56.6696C137.186 56.4727 137.25 56.2573 137.27 56.0356C137.29 55.814 137.267 55.5905 137.2 55.3781ZM107.111 106.392L73.8075 88.875L82.0875 73.1317L115.388 90.6502L107.111 106.392ZM116.963 87.6645L83.6625 70.146L100.009 39.069L133.309 56.5863L116.963 87.6645Z" fill="#543434"/>
<path id="Vector_6" d="M46.9732 98.726L93.9154 108.662C95.7317 109.046 97.5157 107.885 97.9001 106.069L112.106 38.9516C112.49 37.1353 111.33 35.3513 109.513 34.9669L62.5712 25.0313C60.7549 24.6468 58.9709 25.8076 58.5865 27.6238L44.3806 94.7413C43.9962 96.5575 45.157 98.3416 46.9732 98.726Z" fill="#EDD5A4"/>
<path id="Vector_7" d="M92.1179 100.268L52.0149 91.7795L64.3626 33.441L104.466 41.929L92.1179 100.268Z" fill="#FFB31A"/>
<path id="Vector_8" d="M51.9487 91.7458L56.3289 71.0512L96.433 79.5395L92.0528 100.234L51.9487 91.7458Z" fill="#EF9325"/>
<path id="Vector_9" d="M94.5986 110.409C94.2469 110.407 93.8963 110.369 93.5523 110.296L46.5948 100.354C45.9459 100.217 45.3304 99.9538 44.7834 99.5787C44.2364 99.2036 43.7687 98.7244 43.407 98.1685C43.0453 97.6126 42.7967 96.9908 42.6754 96.3388C42.5541 95.6867 42.5625 95.0172 42.7001 94.3684L56.9133 27.2317C57.1935 25.9229 57.9805 24.7783 59.1023 24.0482C60.2241 23.3182 61.5893 23.062 62.8995 23.3359L109.857 33.2764C111.166 33.5567 112.31 34.3439 113.04 35.4656C113.77 36.5874 114.026 37.9525 113.752 39.2625L99.5396 106.402C99.2981 107.534 98.6759 108.55 97.7769 109.278C96.8778 110.007 95.7561 110.406 94.5986 110.409ZM61.8532 26.6017C61.4693 26.6025 61.0972 26.7348 60.799 26.9765C60.5008 27.2183 60.2943 27.5549 60.2141 27.9304L46.002 95.0692C45.9103 95.5038 45.9948 95.9569 46.2369 96.3292C46.4791 96.7015 46.8591 96.9625 47.2935 97.0549L94.251 106.995C94.4663 107.041 94.6885 107.044 94.905 107.004C95.1214 106.964 95.3279 106.882 95.5124 106.762C95.697 106.642 95.8561 106.487 95.9806 106.305C96.105 106.124 96.1924 105.919 96.2377 105.704L110.451 38.565C110.542 38.1302 110.457 37.6769 110.215 37.3046C109.972 36.9323 109.592 36.6715 109.157 36.5794L62.2008 26.6389C62.0867 26.6138 61.9701 26.6013 61.8532 26.6017Z" fill="#543434"/>
<path id="Vector_10" d="M105.874 40.9715C105.63 40.5965 105.247 40.3338 104.809 40.2414L64.6927 31.7487C64.255 31.6564 63.7986 31.7417 63.4237 31.9857C63.0489 32.2298 62.7863 32.6127 62.6936 33.0504L50.3388 91.4075C50.2462 91.8452 50.3311 92.3018 50.575 92.6768C50.8189 93.0519 51.2017 93.3148 51.6394 93.4077L91.7557 101.901C92.1936 101.994 92.6503 101.909 93.0254 101.665C93.4005 101.421 93.6633 101.038 93.756 100.6L106.111 42.2416C106.157 42.0248 106.159 41.801 106.119 41.583C106.078 41.3651 105.995 41.1573 105.874 40.9715ZM90.7995 98.2497L53.9895 90.4501L57.675 73.0565L94.4895 80.8505L90.7995 98.2497ZM95.1814 77.5497L58.3725 69.7501L65.6456 35.396L102.459 43.2001L95.1814 77.5497Z" fill="#543434"/>
<path id="Vector_11" d="M34.0305 106.707L81.9806 105.123C83.8359 105.062 85.2902 103.508 85.2289 101.653L82.9642 33.0943C82.903 31.239 81.3493 29.7847 79.494 29.846L31.5439 31.43C29.6886 31.4912 28.2343 33.0449 28.2956 34.9002L30.5603 103.459C30.6216 105.314 32.1752 106.768 34.0305 106.707Z" fill="#F4E2BA"/>
<path id="Vector_12" d="M78.2294 97.4041L37.2653 98.7572L35.2968 39.166L76.261 37.8128L78.2294 97.4041Z" fill="#646B99"/>
<path id="Vector_13" d="M36.5302 77.5439L77.4955 76.1907L78.1938 97.3308L37.2285 98.684L36.5302 77.5439Z" fill="#5F6793"/>
<path id="Vector_14" d="M33.8858 108.37C32.5756 108.369 31.3172 107.858 30.3763 106.947C29.4353 106.035 28.8853 104.794 28.8424 103.484L26.5924 34.8964C26.5706 34.2335 26.6796 33.5727 26.9132 32.952C27.1468 32.3312 27.5004 31.7625 27.9538 31.2784C28.4072 30.7943 28.9515 30.4042 29.5557 30.1305C30.1598 29.8568 30.812 29.7048 31.4749 29.6831L79.446 28.1081C80.1096 28.0838 80.7713 28.191 81.3932 28.4237C82.0151 28.6564 82.5848 29.0098 83.0694 29.4637C83.554 29.9176 83.944 30.4629 84.2169 31.0682C84.4898 31.6736 84.6401 32.3269 84.6593 32.9906L86.9093 101.581C86.9529 102.919 86.4632 104.22 85.5478 105.198C84.6324 106.175 83.3663 106.749 82.0279 106.793L34.0556 108.368L33.8858 108.37ZM79.6125 31.4775H79.5563L31.5851 33.0525C31.141 33.0675 30.7209 33.2581 30.4172 33.5825C30.1135 33.9069 29.9509 34.3386 29.9651 34.7827L32.2151 103.372C32.2218 103.592 32.272 103.808 32.363 104.009C32.4539 104.209 32.5838 104.39 32.745 104.54C33.0714 104.839 33.5013 105.001 33.9443 104.989L81.9154 103.415C82.1353 103.407 82.3517 103.357 82.5521 103.266C82.7526 103.175 82.9332 103.046 83.0836 102.886C83.234 102.725 83.3514 102.536 83.4289 102.33C83.5064 102.124 83.5426 101.905 83.5354 101.685L81.2854 33.0952C81.27 32.6616 81.0871 32.2507 80.7751 31.9491C80.4632 31.6474 80.0465 31.4784 79.6125 31.4775Z" fill="#543434"/>
<path id="Vector_15" d="M77.9486 37.7076C77.9436 37.4853 77.8943 37.2663 77.8035 37.0633C77.7128 36.8603 77.5825 36.6774 77.4202 36.5254C77.2579 36.3734 77.0669 36.2553 76.8585 36.178C76.65 36.1007 76.4282 36.0658 76.206 36.0753L35.2234 37.4252C34.7762 37.4399 34.3531 37.6316 34.0472 37.9582C33.7413 38.2848 33.5776 38.7195 33.5921 39.1667L35.5508 98.7917C35.5651 99.2297 35.7492 99.6449 36.0641 99.9495C36.379 100.254 36.8001 100.424 37.2383 100.424H37.2934L78.2771 99.0741C78.7244 99.0594 79.1475 98.8677 79.4534 98.5411C79.7593 98.2146 79.9229 97.7799 79.9084 97.3326L77.9486 37.7076ZM74.631 39.5076L75.7841 74.6076L38.1731 75.8451L37.0211 40.7451L74.631 39.5076ZM38.8684 96.985L38.2845 79.21L75.8944 77.9725L76.4783 95.7475L38.8684 96.985Z" fill="#543434"/>
<path id="Vector_16" d="M26.7576 119.326L73.3158 107.614C75.1172 107.161 76.2102 105.334 75.757 103.532L59.012 36.9638C58.5588 35.1623 56.7312 34.0694 54.9298 34.5225L8.37157 46.234C6.57015 46.6872 5.47716 48.5149 5.9303 50.3163L22.6753 116.885C23.1285 118.686 24.9562 119.779 26.7576 119.326Z" fill="#F9EACD"/>
<path id="Vector_17" d="M68.0099 100.859L28.2349 110.865L13.6801 53.0033L53.4551 42.998L68.0099 100.859Z" fill="#55B78B"/>
<path id="Vector_18" d="M23.1348 90.3401L62.9087 80.3351L68.0718 100.86L28.2979 110.865L23.1348 90.3401Z" fill="#508C6D"/>
<g id="Group">
<path id="Vector_19" d="M25.9564 120.773C24.8317 120.771 23.7397 120.395 22.8527 119.703C21.9658 119.011 21.3344 118.044 21.0582 116.954L4.32607 50.4C4.0014 49.1013 4.20506 47.7268 4.89238 46.578C5.57969 45.4293 6.69455 44.6 7.99244 44.2721L54.5427 32.5721C55.8416 32.249 57.2156 32.4534 58.3642 33.1407C59.5128 33.828 60.3424 34.9422 60.6717 36.2396L77.4027 102.795C77.5647 103.438 77.5984 104.107 77.5017 104.763C77.4051 105.419 77.1802 106.05 76.8397 106.619C76.4992 107.188 76.0498 107.685 75.5173 108.08C74.9848 108.476 74.3796 108.762 73.7363 108.924L27.1872 120.621C26.7848 120.722 26.3714 120.773 25.9564 120.773ZM55.7734 35.7896C55.6357 35.7893 55.4985 35.8063 55.3651 35.8402L8.81482 47.5425C8.38447 47.6516 8.01488 47.9268 7.78695 48.3078C7.55903 48.6888 7.49134 49.1445 7.59869 49.5753L24.3308 116.133C24.3846 116.346 24.4798 116.547 24.6111 116.723C24.7425 116.9 24.9073 117.049 25.0961 117.161C25.285 117.274 25.4943 117.349 25.712 117.381C25.9296 117.413 26.1515 117.401 26.3648 117.348L72.9139 105.648C73.1277 105.594 73.3289 105.499 73.5059 105.368C73.6829 105.237 73.8321 105.072 73.9452 104.883C74.0582 104.694 74.1327 104.484 74.1644 104.266C74.1962 104.048 74.1845 103.826 74.1301 103.612L57.3979 37.0552C57.3064 36.6937 57.097 36.373 56.8028 36.1438C56.5086 35.9146 56.1464 35.7899 55.7734 35.7896Z" fill="#543434"/>
<path id="Vector_20" d="M69.6582 100.117L55.1153 42.2662C55.0614 42.0513 54.9657 41.849 54.8336 41.6711C54.7015 41.4931 54.5357 41.3429 54.3456 41.229C54.1554 41.1152 53.9447 41.0399 53.7255 41.0074C53.5063 40.975 53.2828 40.9861 53.0678 41.04L13.2991 51.0379C13.0841 51.0919 12.8819 51.1878 12.7039 51.32C12.526 51.4522 12.3759 51.6181 12.2621 51.8084C12.1483 51.9986 12.0732 52.2094 12.0409 52.4287C12.0086 52.648 12.0198 52.8715 12.074 53.0865L26.618 110.936C26.7094 111.301 26.92 111.625 27.2164 111.856C27.5127 112.087 27.8778 112.213 28.2537 112.213C28.3925 112.213 28.5307 112.196 28.6655 112.162L68.4342 102.165C68.8679 102.055 69.2405 101.778 69.47 101.394C69.6995 101.01 69.7672 100.551 69.6582 100.117ZM52.2545 44.7255L60.8168 78.7849L24.3196 87.9536L15.7583 53.8999L52.2545 44.7255ZM29.48 108.478L25.1431 91.2274L61.6392 82.0586L65.975 99.3037L29.48 108.478Z" fill="#543434"/>
</g>
</g>
<defs>
<filter id="filter0_d_8562_17146" x="-1" y="0" width="152" height="152" filterUnits="userSpaceOnUse" color-interpolation-filters="sRGB">
<feFlood flood-opacity="0" result="BackgroundImageFix"/>
<feColorMatrix in="SourceAlpha" type="matrix" values="0 0 0 0 0 0 0 0 0 0 0 0 0 0 0 0 0 0 127 0" result="hardAlpha"/>
<feOffset dy="4"/>
<feGaussianBlur stdDeviation="2"/>
<feComposite in2="hardAlpha" operator="out"/>
<feColorMatrix type="matrix" values="0 0 0 0 0 0 0 0 0 0 0 0 0 0 0 0 0 0 0.25 0"/>
<feBlend mode="normal" in2="BackgroundImageFix" result="effect1_dropShadow_8562_17146"/>
<feBlend mode="normal" in="SourceGraphic" in2="effect1_dropShadow_8562_17146" result="shape"/>
</filter>
</defs>
</svg>
