<svg width="40" height="40" viewBox="0 0 40 40" fill="none" xmlns="http://www.w3.org/2000/svg">
<g id="Frame 1000006873">
<rect width="40" height="40" rx="20" fill="#1E2644"/>
<g id="Group 35591">
<path id="Vector" d="M13.6841 8.63281H26.3157C29.1063 8.63281 31.3683 10.8948 31.3683 13.6854V26.317C31.3683 29.1076 29.1063 31.3697 26.3157 31.3697H13.6841C10.8935 31.3697 8.63147 29.1076 8.63147 26.317V13.6854C8.63147 10.8948 10.8935 8.63281 13.6841 8.63281Z" fill="#FFDD00"/>
<path id="Vector_2" d="M26.3158 8.63281H13.6842C11.8804 8.63312 10.2139 9.59653 9.31311 11.1591H18.7368C24.3177 11.1591 28.8421 15.6835 28.8421 21.2644V30.6881C30.4047 29.7873 31.3681 28.1208 31.3684 26.317V13.6854C31.3684 10.8948 29.1064 8.63281 26.3158 8.63281Z" fill="#FFEE80"/>
<path id="Vector_3" d="M26.9473 28.8425C18.5758 28.8425 11.7894 22.0561 11.7894 13.6846V9.00269C9.88137 9.77458 8.63239 11.6265 8.63147 13.6846V26.3162C8.63147 29.1068 10.8935 31.3688 13.6841 31.3688H26.3157C28.1194 31.3685 29.7863 30.4054 30.6868 28.8425H26.9473Z" fill="#FFAC0D"/>
<path id="Vector_4" d="M32 26.3158V13.6842C31.9966 10.5464 29.4536 8.00339 26.3158 8H13.6842C10.5464 8.00339 8.00339 10.5464 8 13.6842V26.3158C8.00339 29.4536 10.5464 31.9966 13.6842 32H26.3158C29.4536 31.9966 31.9966 29.4536 32 26.3158ZM9.26316 26.3158V13.6842C9.26593 11.2436 11.2436 9.26593 13.6842 9.26316H26.3158C28.7564 9.26593 30.7341 11.2436 30.7368 13.6842V26.3158C30.7341 28.7564 28.7564 30.7341 26.3158 30.7368H13.6842C11.2436 30.7341 9.26593 28.7564 9.26316 26.3158Z" fill="#052D25"/>
<path id="Vector_5" d="M12.421 17.4747H13.6842V20.001C13.6842 20.3498 13.9669 20.6326 14.3157 20.6326C14.6645 20.6326 14.9473 20.3498 14.9473 20.001V17.4747H16.2105C16.908 17.4747 17.4736 16.9091 17.4736 16.2116V13.6853H18.7368V16.2116C18.7368 16.5604 19.0196 16.8431 19.3684 16.8431C19.7172 16.8431 19.9999 16.5604 19.9999 16.2116V13.6853H22.5263V20.6326C22.5263 20.9814 22.8091 21.2642 23.1578 21.2642C23.5066 21.2642 23.7894 20.9814 23.7894 20.6326V17.4747H26.3157V18.7379C26.3157 19.0867 26.5985 19.3695 26.9473 19.3695C27.2961 19.3695 27.5789 19.0867 27.5789 18.7379V17.4747C28.2765 17.4747 28.842 16.9091 28.842 16.2116V12.4221C28.842 11.7245 28.2765 11.1589 27.5789 11.1589H23.7894C23.0918 11.1589 22.5263 11.7245 22.5263 12.4221H17.4736C17.4736 11.7245 16.908 11.1589 16.2105 11.1589H12.421C11.7234 11.1589 11.1578 11.7245 11.1578 12.4221V16.2116C11.1578 16.9091 11.7234 17.4747 12.421 17.4747ZM23.7894 12.4221H27.5789V16.2116H23.7894V12.4221ZM12.421 12.4221H16.2105V16.2116H12.421V12.4221Z" fill="#052D25"/>
<path id="Vector_6" d="M14.9474 14.3164C14.9474 14.6652 14.6646 14.948 14.3158 14.948C13.967 14.948 13.6842 14.6652 13.6842 14.3164C13.6842 13.9676 13.967 13.6848 14.3158 13.6848C14.6646 13.6848 14.9474 13.9676 14.9474 14.3164Z" fill="#052D25"/>
<path id="Vector_7" d="M16.2105 22.5261H12.421C11.7234 22.5261 11.1578 23.0917 11.1578 23.7893V27.5788C11.1578 28.2763 11.7234 28.8419 12.421 28.8419H16.2105C16.908 28.8419 17.4736 28.2763 17.4736 27.5788V23.7893C17.4736 23.0917 16.908 22.5261 16.2105 22.5261ZM12.421 27.5788V23.7893H16.2105V27.5788H12.421Z" fill="#052D25"/>
<path id="Vector_8" d="M14.9474 25.6863C14.9474 26.0351 14.6646 26.3178 14.3158 26.3178C13.967 26.3178 13.6842 26.0351 13.6842 25.6863C13.6842 25.3375 13.967 25.0547 14.3158 25.0547C14.6646 25.0547 14.9474 25.3375 14.9474 25.6863Z" fill="#052D25"/>
<path id="Vector_9" d="M26.3159 14.3164C26.3159 14.6652 26.0331 14.948 25.6843 14.948C25.3355 14.948 25.0527 14.6652 25.0527 14.3164C25.0527 13.9676 25.3355 13.6848 25.6843 13.6848C26.0331 13.6848 26.3159 13.9676 26.3159 14.3164Z" fill="#052D25"/>
<path id="Vector_10" d="M23.7895 23.1577C23.7895 23.5065 23.5067 23.7893 23.1579 23.7893C22.8092 23.7893 22.5264 23.5065 22.5264 23.1577C22.5264 22.8089 22.8092 22.5261 23.1579 22.5261C23.5067 22.5261 23.7895 22.8089 23.7895 23.1577Z" fill="#052D25"/>
<path id="Vector_11" d="M21.2632 18.1055C21.2632 18.4542 20.9804 18.737 20.6316 18.737C20.2828 18.737 20 18.4542 20 18.1055C20 17.7567 20.2828 17.4739 20.6316 17.4739C20.9804 17.4739 21.2632 17.7567 21.2632 18.1055Z" fill="#052D25"/>
<path id="Vector_12" d="M21.2632 28.2097C21.2632 28.5585 20.9804 28.8413 20.6316 28.8413C20.2828 28.8413 20 28.5585 20 28.2097C20 27.8609 20.2828 27.5781 20.6316 27.5781C20.9804 27.5781 21.2632 27.8609 21.2632 28.2097Z" fill="#052D25"/>
<path id="Vector_13" d="M28.2108 28.2097C28.2108 28.5585 27.928 28.8413 27.5792 28.8413C27.2304 28.8413 26.9476 28.5585 26.9476 28.2097C26.9476 27.8609 27.2304 27.5781 27.5792 27.5781C27.928 27.5781 28.2108 27.8609 28.2108 28.2097Z" fill="#052D25"/>
<path id="Vector_14" d="M13.0526 19.9988C13.0526 20.3476 12.7698 20.6303 12.421 20.6303C12.0722 20.6303 11.7894 20.3476 11.7894 19.9988C11.7894 19.65 12.0722 19.3672 12.421 19.3672C12.7698 19.3672 13.0526 19.65 13.0526 19.9988Z" fill="#052D25"/>
<path id="Vector_15" d="M20 19.9988C20 19.65 19.7173 19.3672 19.3685 19.3672H16.8422C16.4934 19.3672 16.2106 19.65 16.2106 19.9988C16.2106 20.3476 16.4934 20.6303 16.8422 20.6303H19.3685C19.7173 20.6303 20 20.3476 20 19.9988Z" fill="#052D25"/>
<path id="Vector_16" d="M20.0001 24.4221C20.3489 24.4221 20.6317 24.1393 20.6317 23.7905V22.5273C20.6317 22.1785 20.3489 21.8958 20.0001 21.8958C19.6513 21.8958 19.3685 22.1785 19.3685 22.5273V23.7905C19.3685 24.1393 19.6513 24.4221 20.0001 24.4221Z" fill="#052D25"/>
<path id="Vector_17" d="M25.6842 25.6848H24.421C23.7234 25.6848 23.1578 26.2504 23.1578 26.948V28.2111C23.1578 28.5599 23.4406 28.8427 23.7894 28.8427C24.1382 28.8427 24.421 28.5599 24.421 28.2111V26.948H25.6842C26.0329 26.948 26.3157 26.6652 26.3157 26.3164C26.3157 25.9676 26.0329 25.6848 25.6842 25.6848Z" fill="#052D25"/>
<path id="Vector_18" d="M27.5791 20.6301H26.3159C25.6183 20.6301 25.0527 21.1957 25.0527 21.8933V23.1564C25.0527 23.854 25.6183 24.4196 26.3159 24.4196H27.5791C28.2766 24.4196 28.8422 23.854 28.8422 23.1564V21.8933C28.8422 21.1957 28.2766 20.6301 27.5791 20.6301ZM26.3159 23.1564V21.8933H27.5791V23.1564H26.3159Z" fill="#052D25"/>
<path id="Vector_19" d="M20.9476 25.6848H19.0528C18.7041 25.6848 18.4213 25.9676 18.4213 26.3164C18.4213 26.6652 18.7041 26.948 19.0528 26.948H20.9476C21.2964 26.948 21.5792 26.6652 21.5792 26.3164C21.5792 25.9676 21.2964 25.6848 20.9476 25.6848Z" fill="#052D25"/>
</g>
</g>
</svg>
