<svg width="24" height="24" viewBox="0 0 24 24" fill="none" xmlns="http://www.w3.org/2000/svg">
<g id="Frame" clip-path="url(#clip0_8562_17764)">
<path id="Vector" d="M23.5312 14.0625V9.9375H21.4336C21.1855 8.80023 20.7378 7.73767 20.1279 6.78882L21.6123 5.30457L18.6954 2.3877L17.2112 3.87213C16.2623 3.26221 15.1998 2.81451 14.0625 2.56641V0.46875H9.9375V2.56384C8.79858 2.81067 7.73438 3.25781 6.78406 3.86737L5.30457 2.3877L2.3877 5.30457L3.86481 6.78168C3.25269 7.73218 2.80316 8.7973 2.5545 9.9375H0.46875V14.0625H2.55194C2.7995 15.2042 3.24829 16.2709 3.86005 17.2231L2.3877 18.6954L5.30457 21.6121L6.77692 20.1398C7.72906 20.7517 8.79565 21.2005 9.9375 21.4481V23.5312H14.0625V21.4455C15.2025 21.1967 16.2676 20.7473 17.2183 20.1352L18.6954 21.6121L21.6121 18.6954L20.1326 17.2158C20.7422 16.2656 21.1891 15.2014 21.4362 14.0625H23.5312Z" fill="#4DBAF6"/>
<path id="Vector_2" d="M18.4537 11.9999C18.4537 15.5642 15.5643 18.4536 12 18.4536C8.43567 18.4536 5.54626 15.5642 5.54626 11.9999C5.54626 8.43555 8.43567 5.54614 12 5.54614C15.5643 5.54614 18.4537 8.43555 18.4537 11.9999Z" fill="white"/>
<path id="Vector_3" d="M14.8125 12C14.8125 13.5533 13.5533 14.8125 12 14.8125C10.4467 14.8125 9.1875 13.5533 9.1875 12C9.1875 10.4467 10.4467 9.1875 12 9.1875C13.5533 9.1875 14.8125 10.4467 14.8125 12Z" fill="#4DBAF6"/>
<path id="Vector_4" d="M1.59375 23.5312H10.875C11.4963 23.5312 12 23.0275 12 22.4062V14.9062C12 14.285 11.4963 13.7812 10.875 13.7812H1.59375C0.972473 13.7812 0.46875 14.285 0.46875 14.9062V22.4062C0.46875 23.0275 0.972473 23.5312 1.59375 23.5312Z" fill="#FFC66C"/>
<path id="Vector_5" d="M7.23376 17.5312H6.48376C5.96594 17.5312 5.54626 17.1116 5.54626 16.5938C5.54626 16.0759 5.96594 15.6562 6.48376 15.6562H7.23376C7.7514 15.6562 8.17126 16.0759 8.17126 16.5938C8.17126 17.1116 7.7514 17.5312 7.23376 17.5312Z" fill="#4DBAF6"/>
<path id="Vector_6" d="M4.79675 19.4062H5.54675C6.06458 19.4062 6.48425 19.8259 6.48425 20.3438C6.48425 20.8616 6.06458 21.2812 5.54675 21.2812H4.79675C4.27893 21.2812 3.85925 20.8616 3.85925 20.3438C3.85925 19.8259 4.27911 19.4062 4.79675 19.4062Z" fill="#FF5D5D"/>
<path id="Vector_7" d="M23.5312 9.46875H21.8038C21.5673 8.55029 21.2043 7.67505 20.7215 6.8584L21.9437 5.63599C22.1266 5.45306 22.1266 5.15625 21.9437 4.97314L19.0269 2.05627C18.8438 1.87317 18.5469 1.87317 18.3638 2.05627L17.1416 3.2785C16.325 2.79565 15.4497 2.43256 14.5312 2.19617V0.46875C14.5312 0.209839 14.3214 0 14.0625 0H9.9375C9.67859 0 9.46875 0.209839 9.46875 0.46875V2.19305C8.54883 2.42871 7.67212 2.79126 6.85382 3.27411L5.63599 2.05627C5.5481 1.96838 5.42889 1.91913 5.30457 1.91913C5.18024 1.91913 5.06104 1.96838 4.97314 2.05627L2.05627 4.97314C1.87335 5.15625 1.87335 5.45306 2.05627 5.63617L3.27118 6.85107C2.78595 7.66992 2.42139 8.54773 2.18427 9.46875H0.46875C0.209839 9.46875 0 9.67859 0 9.9375V14.0625C0 14.1714 0.0375366 14.2716 0.0999756 14.3511C0.0355224 14.5241 0 14.7111 0 14.9062V22.4062C0 23.285 0.715027 24 1.59375 24H14.0625C14.3214 24 14.5312 23.7902 14.5312 23.5312V21.8157C15.4523 21.5786 16.3301 21.2141 17.1491 20.7288L18.364 21.9437C18.5471 22.1266 18.8439 22.1266 19.0269 21.9437L21.9437 19.0269C22.0316 18.939 22.0811 18.8198 22.0811 18.6954C22.0811 18.5711 22.0316 18.4519 21.9437 18.364L20.7261 17.1462C21.2089 16.3279 21.5713 15.4514 21.8071 14.5312H23.5312C23.7902 14.5312 24 14.3214 24 14.0625V9.9375C24 9.67859 23.7902 9.46875 23.5312 9.46875ZM9.9375 23.0625H1.59375C1.23193 23.0625 0.9375 22.7681 0.9375 22.4062V14.9062C0.9375 14.5444 1.23193 14.25 1.59375 14.25H10.875C11.2368 14.25 11.5312 14.5444 11.5312 14.9062V22.4062C11.5312 22.7681 11.2368 23.0625 10.875 23.0625H9.9375ZM9.65625 12C9.65625 10.7076 10.7076 9.65625 12 9.65625C13.2924 9.65625 14.3438 10.7076 14.3438 12C14.3438 13.1715 13.4797 14.1451 12.3552 14.3168C12.1205 13.7291 11.5457 13.3125 10.875 13.3125H10.0583C9.79504 12.9247 9.65625 12.4737 9.65625 12ZM23.0625 13.5938H21.4362C21.2155 13.5938 21.0247 13.7476 20.978 13.9633C20.7464 15.0322 20.3291 16.0415 19.738 16.9627C19.6192 17.1482 19.6454 17.3915 19.8012 17.5474L20.9493 18.6954L18.6954 20.9493L17.5497 19.8036C17.3937 19.6476 17.15 19.6216 16.9645 19.741C16.0426 20.3348 15.0326 20.7541 13.9625 20.9875C13.7474 21.0344 13.5938 21.225 13.5938 21.4455V23.0625H12.3268C12.4177 22.8622 12.4688 22.6401 12.4688 22.4062V18.9064C16.0681 18.6645 18.9225 15.6595 18.9225 12C18.9225 10.459 18.427 9.00037 17.4895 7.78198C16.5817 6.60223 15.2966 5.73267 13.8708 5.33331C13.6216 5.26355 13.3629 5.40894 13.2931 5.65833C13.2231 5.90753 13.3687 6.16626 13.6179 6.23602C16.1893 6.95618 17.9852 9.32648 17.9852 12C17.9852 15.1425 15.5508 17.727 12.4688 17.9669V15.2472C14.0568 15.019 15.2812 13.6501 15.2812 12C15.2812 10.1907 13.8093 8.71875 12 8.71875C10.1907 8.71875 8.71875 10.1907 8.71875 12C8.71875 12.4589 8.81195 12.9027 8.99139 13.3125H6.16003C6.06427 12.8837 6.01501 12.4437 6.01501 12C6.01501 9.32648 7.81073 6.95636 10.3819 6.23621C10.6313 6.16626 10.7767 5.90771 10.7069 5.65833C10.6371 5.40894 10.3784 5.26355 10.129 5.33331C8.70337 5.73285 7.41815 6.60242 6.5105 7.78198C5.573 9.00037 5.07751 10.459 5.07751 12C5.07751 12.4422 5.12 12.8817 5.20276 13.3125H1.59375C1.35992 13.3125 1.13782 13.3636 0.9375 13.4544V10.4062H2.5545C2.77496 10.4062 2.96558 10.2528 3.01245 10.0375C3.24591 8.96741 3.66522 7.9574 4.25903 7.03546C4.37842 6.84998 4.35242 6.60626 4.19641 6.45026L3.05072 5.30457L5.30457 3.05072L6.45264 4.19879C6.60846 4.35461 6.85181 4.38098 7.03729 4.26196C7.9585 3.6709 8.96777 3.25378 10.0367 3.02197C10.2524 2.97528 10.4062 2.78448 10.4062 2.56384V0.9375H13.5938V2.56641C13.5938 2.78687 13.7472 2.97748 13.9625 3.02435C15.0302 3.25726 16.0378 3.67511 16.9578 4.26636C17.1432 4.38556 17.3868 4.35938 17.5426 4.20355L18.6954 3.05072L20.9493 5.30457L19.7964 6.4574C19.6406 6.6134 19.6144 6.85675 19.7336 7.04224C20.3249 7.96216 20.7427 8.96979 20.9756 10.0375C21.0225 10.2526 21.2131 10.4062 21.4336 10.4062H23.0625V13.5938Z" fill="black"/>
<path id="Vector_8" d="M12.0247 5.07739H12C11.7411 5.07739 11.5312 5.28723 11.5312 5.54614C11.5312 5.80505 11.7411 6.01489 12 6.01489H12.0222H12.0234C12.2818 6.01489 12.4915 5.80597 12.4922 5.54742C12.4929 5.28851 12.2836 5.07813 12.0247 5.07739Z" fill="black"/>
<path id="Vector_9" d="M10.0078 16.125H8.55927C8.36591 15.5793 7.84479 15.1875 7.23376 15.1875H6.48376C5.87256 15.1875 5.35162 15.5793 5.15808 16.125H2.55469C2.29578 16.125 2.08594 16.3348 2.08594 16.5938C2.08594 16.8527 2.29578 17.0625 2.55469 17.0625H5.15808C5.35162 17.6082 5.87256 18 6.48376 18H7.23376C7.84479 18 8.36591 17.6082 8.55927 17.0625H10.0078C10.2667 17.0625 10.4766 16.8527 10.4766 16.5938C10.4766 16.3348 10.2667 16.125 10.0078 16.125ZM7.23376 17.0625H6.48376C6.22522 17.0625 6.01501 16.8523 6.01501 16.5938C6.01501 16.3352 6.22522 16.125 6.48376 16.125H7.23376C7.49213 16.125 7.70251 16.3352 7.70251 16.5938C7.70251 16.8523 7.49213 17.0625 7.23376 17.0625Z" fill="black"/>
<path id="Vector_10" d="M10.0078 19.875H6.8725C6.67896 19.3293 6.15802 18.9375 5.54681 18.9375H4.79681C4.18579 18.9375 3.66467 19.3293 3.47131 19.875H2.55469C2.29578 19.875 2.08594 20.0848 2.08594 20.3438C2.08594 20.6027 2.29578 20.8125 2.55469 20.8125H3.47131C3.66486 21.3582 4.18579 21.75 4.797 21.75H5.547C6.15802 21.75 6.67896 21.3582 6.8725 20.8125H10.0078C10.2667 20.8125 10.4766 20.6027 10.4766 20.3438C10.4766 20.0848 10.2667 19.875 10.0078 19.875ZM5.54681 20.8125H4.79681C4.53845 20.8125 4.32806 20.6023 4.32806 20.3438C4.32806 20.0852 4.53845 19.875 4.79681 19.875H5.54681C5.80536 19.875 6.01556 20.0852 6.01556 20.3438C6.01556 20.6023 5.80536 20.8125 5.54681 20.8125Z" fill="black"/>
</g>
<defs>
<clipPath id="clip0_8562_17764">
<rect width="24" height="24" fill="white"/>
</clipPath>
</defs>
</svg>
